<svg xmlns="http://www.w3.org/2000/svg" viewBox="0 0 653.2 3848.97"><defs><style>.cls-1,.cls-7{fill:#03313f;}.cls-2,.cls-5{fill:#071c26;}.cls-2,.cls-6{opacity:0.5;}.cls-3,.cls-6{fill:#f18889;}.cls-4{fill:#f09ea2;}.cls-7{opacity:0.41;}.cls-8{fill:#fff;opacity:0.3;}</style></defs><title>backgroundimage</title><g id="Lager_2" data-name="Lager 2"><g id="Lager_1-2" data-name="Lager 1"><path class="cls-1" d="M653.2,3848.86v-1.81c0-1-5.1-462.13-8-536.21-14.59-371.47-348.77-541.06-341.67-899.39,5.17-261.16,185.36-306.28,179.17-551.87C477.1,1638,329.83,1650.69,146,1188.38c0,0-131.46-330.66-146-684.37,0,0,0-.57,0-.57H0s1.81,989.52,2.61,1830c.35,376.09.67,893.66.48,1515.44H653.2Z"/><path class="cls-2" d="M464.85,3848.86v0s0-.62,0-1.79c0-1-3.62-462.13-5.69-536.21C448.77,2939.37,211,2769.78,216,2411.45c3.68-261.16,131.92-306.28,127.51-551.87-4-221.57-108.78-208.89-239.58-671.2,0,0-93.55-330.66-103.92-684.37v-.57H0s1.29,989.52,1.86,1830c.25,376.09.47,893.66.34,1515.44H464.85Z"/><circle class="cls-3" cx="325.71" cy="660.03" r="156.59"/><circle class="cls-4" cx="479.34" cy="784.25" r="12.62"/><circle class="cls-4" cx="504.59" cy="712.24" r="6.31"/><circle class="cls-4" cx="510.9" cy="755.24" r="6.31"/><circle class="cls-4" cx="140.55" cy="610.44" r="6.31"/><circle class="cls-4" cx="298.03" cy="640.47" r="94.67"/><polygon class="cls-5" points="527.65 3399.97 404.63 3848.86 650.68 3848.86 527.65 3399.97"/><path class="cls-6" d="M650.68,3848.86H528.29V3400Q589.49,3624.42,650.68,3848.86Z"/><polygon class="cls-5" points="421.7 3599.72 489.98 3848.86 353.42 3848.86 421.7 3599.72"/><path class="cls-6" d="M353.42,3848.86h67.93V3599.72Q387.39,3724.28,353.42,3848.86Z"/><polygon class="cls-1" points="151.19 3304.64 300.34 3848.86 2.04 3848.86 151.19 3304.64"/><path class="cls-6" d="M3,3848.86H151.42V3304.64Z"/><polygon class="cls-1" points="285.14 3536.73 353.42 3848.86 216.87 3848.86 285.14 3536.73"/><path class="cls-6" d="M216.87,3848.86h67.92V3536.73Z"/><polygon class="cls-3" points="77 3576.75 151.19 3304.64 151.19 3688.01 77 3576.75"/><polygon class="cls-7" points="453.89 3672.08 528.08 3399.97 528.08 3783.33 453.89 3672.08"/><rect class="cls-8" x="0.13" width="652.93" height="3848.97"/></g></g></svg>