<svg xmlns="http://www.w3.org/2000/svg" viewBox="0 0 656.68 2624.14"><defs><style>.cls-1,.cls-3{fill:#071c26;}.cls-2,.cls-7{fill:#03313f;}.cls-3,.cls-6{opacity:0.5;}.cls-4,.cls-6{fill:#f18889;}.cls-5{fill:#f09ea2;}.cls-7{opacity:0.41;}</style></defs><title>backgrounddark</title><g id="Lager_2" data-name="Lager 2"><g id="Lager_1-2" data-name="Lager 1"><rect class="cls-1" x="3.74" width="652.93" height="2624.14"/><path class="cls-2" d="M653.2,2624.14h0v-1.22c0-.67-5.1-315.09-8-365.6C630.6,2004,296.42,1888.41,303.52,1644.09c5.17-178.06,185.36-208.82,179.17-376.27C477.1,1116.75,329.83,1125.39,146,810.18c0,0-131.46-225.45-146-466.62,0,0,0-.38,0-.38H0s1.81,674.67,2.61,1247.71c.35,256.43.67,609.31.48,1033.25H653.2Z"/><path class="cls-3" d="M464.85,2624.14h0s0-.43,0-1.22-3.62-315.09-5.69-365.6C448.77,2004,211,1888.41,216,1644.09c3.68-178.06,131.92-208.82,127.51-376.27-4-151.07-108.78-142.43-239.58-457.64,0,0-93.55-225.45-103.92-466.62v-.38H0s1.29,674.67,1.86,1247.71c.25,256.43.47,609.31.34,1033.25H464.85Z"/><circle class="cls-4" cx="332" cy="503.33" r="122.11"/><circle class="cls-5" cx="451.8" cy="600.19" r="9.84"/><circle class="cls-5" cx="471.49" cy="544.04" r="4.92"/><circle class="cls-5" cx="476.41" cy="577.57" r="4.92"/><circle class="cls-5" cx="187.62" cy="464.66" r="4.92"/><circle class="cls-5" cx="310.42" cy="488.07" r="73.82"/><polygon class="cls-1" points="531.65 2318.08 408.63 2624.14 654.68 2624.14 531.65 2318.08"/><path class="cls-6" d="M654.68,2624.14H532.29V2318.08Z"/><polygon class="cls-1" points="425.7 2454.27 493.98 2624.14 357.42 2624.14 425.7 2454.27"/><path class="cls-6" d="M357.42,2624.14h67.93V2454.27Q391.39,2539.22,357.42,2624.14Z"/><polygon class="cls-2" points="155.19 2253.09 304.34 2624.14 6.04 2624.14 155.19 2253.09"/><path class="cls-6" d="M7,2624.14H155.42V2253.08Z"/><polygon class="cls-2" points="289.14 2411.33 357.42 2624.14 220.87 2624.14 289.14 2411.33"/><path class="cls-6" d="M220.87,2624.14h67.92V2411.33Z"/><polygon class="cls-4" points="81 2438.61 155.19 2253.09 155.19 2514.47 81 2438.61"/><polygon class="cls-7" points="457.89 2503.61 532.08 2318.08 532.08 2579.47 457.89 2503.61"/></g></g></svg>