<svg xmlns="http://www.w3.org/2000/svg" viewBox="0 0 653.96 3849.97"><defs><style>.cls-1,.cls-3{fill:#071c26;}.cls-2,.cls-7{fill:#03313f;}.cls-3,.cls-6{opacity:0.5;}.cls-4,.cls-6{fill:#f18889;}.cls-5{fill:#f09ea2;}.cls-7{opacity:0.41;}.cls-8{fill:#fff;opacity:0.3;}</style></defs><title>backgroundimagefinal1</title><g id="Lager_2" data-name="Lager 2"><g id="Lager_1-2" data-name="Lager 1"><rect class="cls-1" x="0.5" y="0.61" width="652.93" height="3848.75"/><path class="cls-2" d="M654,3849.36v0s0-.62,0-1.79c0-1-5.09-462.13-8-536.21-14.6-371.47-348.77-541.06-341.68-899.39,5.18-261.16,185.37-306.28,179.17-551.87-5.59-221.57-152.85-208.89-336.64-671.2,0,0-131.46-330.66-146-684.37v-.57h0s1.81,989.52,2.61,1830c.35,376.09.66,893.66.48,1515.44H654Z"/><path class="cls-3" d="M465.61,3849.36v-1.81c0-1-3.63-462.13-5.7-536.21-10.38-371.47-248.2-541.06-243.15-899.39,3.68-261.16,131.91-306.28,127.5-551.87-4-221.57-108.78-208.89-239.57-671.2,0,0-93.55-330.66-103.92-684.37v-.57h0s1.29,989.52,1.85,1830c.26,376.09.48,893.66.35,1515.44H465.61Z"/><circle class="cls-4" cx="326.47" cy="660.53" r="156.59"/><circle class="cls-5" cx="480.1" cy="784.75" r="12.62"/><circle class="cls-5" cx="505.35" cy="712.74" r="6.31"/><circle class="cls-5" cx="511.66" cy="755.74" r="6.31"/><circle class="cls-5" cx="141.31" cy="610.94" r="6.31"/><circle class="cls-5" cx="298.78" cy="640.97" r="94.67"/><polygon class="cls-1" points="528.41 3400.47 405.39 3849.36 651.43 3849.36 528.41 3400.47"/><polygon class="cls-1" points="422.46 3600.22 490.74 3849.36 354.18 3849.36 422.46 3600.22"/><path class="cls-6" d="M354.18,3849.36h67.93V3600.22Q388.15,3724.78,354.18,3849.36Z"/><polygon class="cls-2" points="151.95 3305.14 301.09 3849.36 2.8 3849.36 151.95 3305.14"/><path class="cls-6" d="M3.8,3849.36H152.17V3305.14Q78,3577.26,3.8,3849.36Z"/><polygon class="cls-2" points="285.9 3537.23 354.18 3849.36 217.62 3849.36 285.9 3537.23"/><path class="cls-6" d="M217.62,3849.36h67.93V3537.23Q251.59,3693.29,217.62,3849.36Z"/><polygon class="cls-4" points="77.76 3577.25 151.95 3305.14 151.95 3688.51 77.76 3577.25"/><polygon class="cls-7" points="454.65 3672.58 528.83 3400.47 528.83 3783.83 454.65 3672.58"/><rect class="cls-8" width="652.93" height="3849.97"/></g></g></svg>