<svg xmlns="http://www.w3.org/2000/svg" viewBox="0 0 653.46 3848.97"><defs><style>.cls-1,.cls-3{fill:#071c26;}.cls-2,.cls-7{fill:#03313f;}.cls-3,.cls-6{opacity:0.5;}.cls-4,.cls-6{fill:#f18889;}.cls-5{fill:#f09ea2;}.cls-7{opacity:0.41;}.cls-8{fill:#fff;opacity:0.3;}</style></defs><title>backgroundfinal</title><g id="Lager_2" data-name="Lager 2"><g id="Lager_1-2" data-name="Lager 1"><rect class="cls-1" width="652.93" height="3848.75"/><path class="cls-2" d="M653.46,3848.75v0s0-.62,0-1.78c0-1-5.09-462.14-8-536.21-14.6-371.47-348.77-541.06-341.67-899.39,5.17-261.17,185.36-306.28,179.16-551.88-5.59-221.56-152.85-208.88-336.64-671.19,0,0-131.46-330.66-146-684.38v-.56h0s1.81,989.52,2.61,1830c.35,376.09.66,893.65.48,1515.44H653.46Z"/><path class="cls-3" d="M465.11,3848.75v-1.81c0-1-3.63-462.14-5.7-536.21-10.38-371.47-248.2-541.06-243.15-899.39,3.68-261.17,131.92-306.28,127.51-551.88-4-221.56-108.79-208.88-239.58-671.19,0,0-93.55-330.66-103.92-684.38v-.56h0s1.29,989.52,1.85,1830c.26,376.09.48,893.65.35,1515.44H465.11Z"/><circle class="cls-4" cx="325.97" cy="659.92" r="156.59"/><circle class="cls-5" cx="479.6" cy="784.14" r="12.62"/><circle class="cls-5" cx="504.85" cy="712.13" r="6.31"/><circle class="cls-5" cx="511.16" cy="755.13" r="6.31"/><circle class="cls-5" cx="140.81" cy="610.33" r="6.31"/><circle class="cls-5" cx="298.28" cy="640.36" r="94.67"/><polygon class="cls-1" points="527.91 3399.86 404.89 3848.75 650.93 3848.75 527.91 3399.86"/><path class="cls-6" d="M650.93,3848.75H528.55v-448.9Q589.74,3624.31,650.93,3848.75Z"/><polygon class="cls-1" points="421.96 3599.61 490.24 3848.75 353.68 3848.75 421.96 3599.61"/><path class="cls-6" d="M353.68,3848.75h67.93V3599.61Q387.65,3724.17,353.68,3848.75Z"/><polygon class="cls-2" points="151.45 3304.53 300.6 3848.75 2.3 3848.75 151.45 3304.53"/><path class="cls-6" d="M3.3,3848.75H151.68V3304.53Z"/><polygon class="cls-2" points="285.4 3536.62 353.68 3848.75 217.12 3848.75 285.4 3536.62"/><path class="cls-6" d="M217.12,3848.75h67.93V3536.62Q251.09,3692.68,217.12,3848.75Z"/><polygon class="cls-4" points="77.26 3576.64 151.45 3304.53 151.45 3687.89 77.26 3576.64"/><polygon class="cls-7" points="454.15 3671.97 528.34 3399.86 528.34 3783.22 454.15 3671.97"/><rect class="cls-8" x="0.39" width="652.93" height="3848.97"/></g></g></svg>