<svg xmlns="http://www.w3.org/2000/svg" viewBox="0 0 656.68 2700.23"><defs><style>.cls-1,.cls-3{fill:#071c26;}.cls-2,.cls-7{fill:#03313f;}.cls-3,.cls-6{opacity:0.5;}.cls-4,.cls-6{fill:#f18889;}.cls-5{fill:#f09ea2;}.cls-7{opacity:0.41;}</style></defs><title>background</title><g id="Lager_2" data-name="Lager 2"><g id="Lager_1-2" data-name="Lager 1"><rect class="cls-1" x="3.74" width="652.93" height="2695.9"/><path class="cls-2" d="M653.2,2700.23V2699c0-.64-5.1-303.48-8-352.12C630.6,2103,296.42,1991.61,303.52,1756.3c5.17-171.51,185.36-201.13,179.17-362.41C477.1,1248.39,329.83,1256.72,146,953.12,146,953.12,14.58,736,0,503.7l0-.37H0s1.81,649.81,2.61,1201.73c.35,247,.67,586.85.48,995.17H653.2Z"/><path class="cls-3" d="M464.85,2700.23v0s0-.4,0-1.17-3.62-303.48-5.69-352.12C448.77,2103,211,1991.61,216,1756.3c3.68-171.51,131.92-201.13,127.51-362.41-4-145.5-108.78-137.17-239.58-440.77,0,0-93.55-217.14-103.92-449.42v-.37H0s1.29,649.81,1.86,1201.73c.25,247,.47,586.85.34,995.17H464.85Z"/><circle class="cls-4" cx="329.71" cy="659.92" r="156.59"/><circle class="cls-5" cx="483.34" cy="784.14" r="12.62"/><circle class="cls-5" cx="508.59" cy="712.13" r="6.31"/><circle class="cls-5" cx="514.9" cy="755.13" r="6.31"/><circle class="cls-5" cx="144.55" cy="610.33" r="6.31"/><circle class="cls-5" cx="302.03" cy="640.36" r="94.67"/><polygon class="cls-1" points="533.65 2247 410.63 2695.9 656.68 2695.9 533.65 2247"/><path class="cls-6" d="M656.68,2695.9H534.29V2247Q595.49,2471.45,656.68,2695.9Z"/><polygon class="cls-1" points="427.7 2446.75 495.98 2695.9 359.42 2695.9 427.7 2446.75"/><path class="cls-6" d="M359.42,2695.9h67.93V2446.75Q393.39,2571.33,359.42,2695.9Z"/><polygon class="cls-2" points="157.19 2151.68 306.34 2695.9 8.04 2695.9 157.19 2151.68"/><path class="cls-6" d="M9,2695.9H157.42V2151.68Z"/><polygon class="cls-2" points="291.14 2383.77 359.42 2695.9 222.87 2695.9 291.14 2383.77"/><path class="cls-6" d="M222.87,2695.9h67.92V2383.77Z"/><polygon class="cls-4" points="83 2423.79 157.19 2151.68 157.19 2535.04 83 2423.79"/><polygon class="cls-7" points="459.89 2519.11 534.08 2247 534.08 2630.37 459.89 2519.11"/></g></g></svg>