<?xml version="1.0" encoding="utf-8"?>
<!-- Generator: Adobe Illustrator 23.0.1, SVG Export Plug-In . SVG Version: 6.00 Build 0)  -->
<svg version="1.1" id="Lager_1" xmlns="http://www.w3.org/2000/svg" xmlns:xlink="http://www.w3.org/1999/xlink" x="0px" y="0px"
	 viewBox="0 0 652 1190.6" style="enable-background:new 0 0 652 1190.6;" xml:space="preserve">
<style type="text/css">
	.st0{opacity:0.5;fill:#081C26;}
	.st1{fill:#081C26;}
	.st2{fill:#043140;}
	.st3{fill:#F1888A;}
	.st4{font-family:'ArcaMajora3-Heavy';}
	.st5{font-size:20.5766px;}
	.st6{font-family:'RiverJade';}
	.st7{font-size:35.8731px;}
	.st8{fill:#F9EDE4;}
	.st9{fill:#F9EDE4;stroke:#000000;stroke-width:0.25;stroke-miterlimit:10;}
	.st10{fill:#010202;}
	.st11{fill:#F1888A;stroke:#010202;stroke-width:0.25;stroke-miterlimit:10;}
	.st12{fill:#FFFFFF;stroke:#010202;stroke-width:0.25;stroke-miterlimit:10;}
	.st13{fill:#033140;stroke:#010202;stroke-width:0.5;stroke-miterlimit:10;}
	.st14{fill:#F6F6F6;}
	.st15{fill:none;stroke:#010202;stroke-width:0.25;stroke-miterlimit:10;}
	.st16{fill:none;stroke:#010202;stroke-width:0.1;stroke-miterlimit:10;}
	.st17{fill:none;stroke:#000000;stroke-width:0.1;stroke-miterlimit:10;}
	.st18{fill:none;stroke:#4A494A;stroke-width:0.5;stroke-miterlimit:10;}
	.st19{fill:#010202;stroke:#F1888A;stroke-width:0.25;stroke-miterlimit:10;}
	.st20{fill:none;stroke:#000000;stroke-width:0.25;stroke-miterlimit:10;}
</style>
<circle class="st0" cx="249.2" cy="969.5" r="311.1"/>
<circle class="st1" cx="201.5" cy="995.6" r="311.1"/>
<circle class="st2" cx="391.2" cy="186.8" r="134.8"/>
<circle class="st1" cx="178.4" cy="174" r="147.5"/>
<text transform="matrix(1 0 0 1 201.4985 202.9728)" class="st3 st4 st5">But you can call us</text>
<text transform="matrix(1 0 0 1 401.7236 202.9729)" class="st3 st6 st7">Hedy</text>
<text transform="matrix(1 0 0 1 151.3117 155.7558)" class="st3 st4 st5">WE ARE HEDYLITY TECHNOLOGY</text>
<g>
	<path class="st8" d="M496.8,1032.8c1.4,1.1,2.9,2.7,2.9,4.7c0,1.9-1.4,3-2.1,4.1c-3.6,5.8,5.7,23.8,19.6,26.4
		c2.7,0.5,4.9,0.3,6.4,0.1c0.9-0.1,1.9-0.4,3.1-1c5.1-2.3,5.7-5,9-7.6c0.4-0.4,0.8-0.6,1.1-0.8c1.4-0.9,2.6-1.5,2.9-1.6
		c1.9-0.9,3.8-2.8,4.9-4c3.1-3.2,4.2-8.6,5.4-15c0.3-1.7,0-0.4,0.5-15.8c0-0.6,0.1-2.2-0.7-2.6c-1.2-0.6-3.9,2.3-6.1,5
		c0,0-3.6,2.6-8.2,5.3c-1.7,1-3.1,1.8-5.4,3.3c-2.7,1.8-2.7,2-4,2.7c-2.7,1.4-5.2,1.8-7.5,2.1c-2.4,0.3-4.2,0.2-7.9,0.1
		c-3.2-0.2-4.9-0.3-6.6-0.8C502.6,1036.9,499.8,1035.7,496.8,1032.8z"/>
	<path class="st9" d="M480.5,910.9c0,0-13,6.6-11.1,35.6c0,0,1,6.3,0.8,12.3c0,0-1.1,9.1-0.1,12c0,0,1.2,14.2,4.8,22.8
		c0,0,4.3,16,6.4,19.2c0,0,4.8,10.5,12.1,18.1c7.3,7.6,11,9.7,16.4,10.1c5.4,0.4,14.4,0.5,17.9-1.9s20.2-12.2,23.8-15.4
		s10.6-10.5,12.6-18.9c2-8.4,2.6-13.2,4.3-15.8c0.3-1,0.5-2.1,0.1-2.4c-0.5-0.4-1.3,0.7-2,0.4c-2.7-1.2,0.1-12.4,0.1-12.4
		s1.2-12.1-0.5-13.4s-0.4-10.2-2-12.5c-1.6-2.3-7.1-6.8-6.9-8.9c0.1-2.2-2.5-8-1.1-11c1.3-3,0.5-4.5,0.5-4.5c-1-1.1-2.7-3-4.4-5.6
		c-2.4-3.7-3.7-6.8-4-7.7c-1.9-4.6-9-17.8-20.5-24.5c-3.5-2-11.4-5.9-23.8-4.9c-3.6,21-7.6,26.5-10.8,26.8c-0.2,0-0.3,0-0.7,0
		C489.4,908.4,485.3,909,480.5,910.9z"/>
	<path class="st10" d="M538.2,877.1c16.4,2.4,27.1,11.1,28,14.4c0.8,2.8-0.3,3.9,1.1,6.2c3.3,5.5,11.3,2.5,18.5,7.7
		c6.3,4.5,8,12.4,8.8,16.6c1.7,8-1.1,9.7,1.3,15.5c1.7,4.1,4,5.1,11.5,12c1.4,1.3,12.1,7.5,15.8,17.1c3.7,9.6-0.4,19.4-0.8,20.2
		c-3.7,8.5-9.4,8.6-10.2,14.9c-0.9,7.1,6,8.9,6.7,17.6c0.6,7.8-4.1,17.3-11.2,20.4c-6.6,2.9-10.2-2.1-20.6,1.1
		c-5.7,1.8-10.4,5-10.8,5.4c-3.6,2.9-6.1,8.6-11.4,8.9c-3.4,0.2-6.7,0.4-10.1,0.6c-2.5,0.1-5.2,0.3-7.6-0.5
		c-2.4-0.8-2.2-2.5-4.6-5.2c-3.5-3.8-7.8-3.2-9.5-7.3c-1.2-3,0.8-6.5,1.2-7.2c1.7-2.8,3.9-3.4,7.9-6c2.7-1.7,4.6-3.5,8.3-7
		c5.6-5.2,8.7-8,11-12.9c0.7-1.5,2.4-5.3,3-10.5c0.7-6.1-1.2-6.1-1-12.5c0.1-3.4,0.9-8.2,2.6-17.8c0.1-0.8,0.4-2.5,0-4.6
		c-0.5-2-1.6-2.9-2.2-4.5c-1.5-4.2-0.6-5.3-1.6-8.5c-1.4-4.4-3.6-3.9-6.2-9.5c-0.9-1.9-1.9-4.1-2.1-7.1c-0.3-4.3,1.4-5.5,0.5-9.2
		c-0.3-1.4-1.1-2.8-2.7-5.6c-2.2-3.8-3.3-5.7-4.6-7c-4.3-4.5-11.4-4.4-15.2-4.3c-8.8,0.2-9.1,3.6-17,3c-5.8-0.4-8.1-2.4-12.3-2.2
		c-0.7,0-1.9,0-2.5-0.8c-0.5-0.6-0.4-1.4-0.2-3.6c0.2-1.8,0.2-2.8,0.3-3.2c0.2-1.4,0.6-3.8,1.6-6.7c0,0,0.3-1,2.1-5.5l0,0
		c0.3-0.6,1.8-3.4,4.5-6.4c0.7-0.8,1.2-1.4,2-2c2.2-1.7,4.6-2.3,6.4-2.7C530.4,876,538.2,877.1,538.2,877.1z"/>
	<path class="st10" d="M504.5,887.3c2.7-4.5,5.6-5.3,5-6.9c-0.9-2.5-8.1-2.9-12.5-2.3c-1.9,0.3-13.5,1.6-19.7,10.7
		c-2.3,3.3-3.6,7.5-6.9,9.7c-2.4,1.7-5.5,2-8.4,2.8c-9.1,2.5-16.4,10.7-17.9,20.1c-0.9,5.7,0.1,11.9-3,16.8
		c-4.2,6.5-10.4,4-17.3,11.6c-4.9,5.3-6.4,11.4-6.9,13.7c-0.5,2.4-2,9.1,0.5,16.4c0.9,2.7,3.3,8,4.5,10.7c1.5,3.4,2,4.3,2.1,6
		c0.1,4.2-3,6.1-4.8,9.6c-3.1,6-1.2,14,1.5,18.5c4.7,7.9,11.7,4.9,19.6,14.2c4.5,5.4,3.8,7.2,7.9,11.2c3.2,3.1,10.8,5.4,17.7,3.3
		c6.6-2.1,5.6-6,11.2-7.7c7-2.1,19.3,5,20.4,3.2c0.2-0.3-0.2-0.4-0.4-1.9c-0.2-0.9-0.6-3.4,0.6-5.3c0.5-0.9,1-0.9,1.5-2
		c0.4-0.8,0.6-1.6,0.6-2.1c-1.2-0.9-2.6-2.2-4.3-3.7c-2.5-2.2-4.1-4.2-5.4-5.8c-7.4-9-11.7-20.4-11.7-20.4
		c-0.8-2.3-0.2-0.8-3.6-12.1c-2.4-7.9-2.7-8.4-3.3-11.3c-0.9-4-1.3-7.1-2-13.4c-0.2-1.5-0.4-3.2-0.4-5.5c0-2.6,0.3-3.6,0.4-5.8
		c0.1-1.1,0.1-2.7-0.5-11.4c-0.4-5.5-0.5-4.8-0.6-7.1c-0.1-2.7,0-8.2,1.9-14.8c0.8-3,1.8-6.3,4.3-9.9c1.2-1.7,1.7-2.5,2.7-3.3
		c1.7-1.4,3.9-2.1,14.8-2.8c3-0.2,4.9-0.3,6.2-1.7c1.2-1.3,1.3-3,1.3-4.3C500,897.9,502.1,891.3,504.5,887.3z"/>
	<g>
		<path class="st11" d="M505.2,1007.3c0,0,5.4-2.5,11.2-0.7c5.8,1.8,10.2,6,10.2,6s-4.3,5.4-7.6,6.4c-3.3,0.9-11.1,2.9-17.9,1.8
			c0,0-4.2-0.3-9.3-6.7c0,0,1.3-7.4,6.8-8.2C498.6,1005.9,501.9,1005.2,505.2,1007.3z"/>
	</g>
	<path class="st10" d="M490.1,949.6c0,0-2.7-2.9-6.3-3.4c0,0-4.5-1.2-6.9-0.8c0,0-2.6-0.2-4.9,2.4c-2.3,2.6-1.2,10.1-1.2,10.1
		c0.1-0.8,0.2-1.6,0.4-2.4c0.4-1.9,1-3.5,1.6-4.8c1-0.8,2.6-1.8,4.7-2.1c1.1-0.1,2.3,0.1,4.8,0.5c5.8,1,8,1.4,8.1,1
		C490.6,950.1,490.5,949.9,490.1,949.6z"/>
	<path class="st12" d="M520.1,963.7c0,0,1.6-1.4,3.5-2.7c0.3-0.2,1.9-1.2,3.6-1.8c0,0,0.1,0,0.1,0c0.3-0.1,1.4-0.4,3.2-0.3
		c1,0.1,1.7,0.3,2.3,0.5c0.4,0.1,0.9,0.3,2.1,0.8c0,0,2.9,1.3,5,2.5c0.6,0.3,1.2,0.7,1.2,0.7c0,0,0,0,0,0c0,0-2.9,1.7-4.8,2.5
		c-1.1,0.5-4.3,1.6-8.2,1.1C524.1,966.6,521.4,964.7,520.1,963.7z"/>
	
		<ellipse transform="matrix(2.234722e-02 -0.9998 0.9998 2.234722e-02 -444.8656 1469.5577)" class="st13" cx="529" cy="962.2" rx="3.2" ry="4"/>
	
		<ellipse transform="matrix(0.3145 -0.9493 0.9493 0.3145 -550.0793 1160.7063)" class="st10" cx="528.6" cy="961.2" rx="2.1" ry="1.9"/>
	<path class="st12" d="M495.6,965.1c-0.8-0.8-2-1.6-3.4-2.4c-2.4-1.3-4.7-1.8-6.2-1.9c-0.5-0.1-3.5-0.6-6,1.3
		c-1.4,1.1-2.1,2.5-2.4,3.2c0.8,1,2.3,2.5,4.6,3.4c4.6,1.8,8.7-0.1,9.3-0.3C493.7,967.4,495,965.9,495.6,965.1z"/>
	
		<ellipse transform="matrix(0.9979 -6.522488e-02 6.522488e-02 0.9979 -61.831 33.7064)" class="st13" cx="485.3" cy="963.8" rx="3.6" ry="3.2"/>
	
		<ellipse transform="matrix(0.2215 -0.9752 0.9752 0.2215 -561.2944 1222.5162)" class="st10" cx="485" cy="962.8" rx="2.1" ry="1.7"/>
	<path class="st10" d="M516.4,950.3c0,0,7.7-7.2,23.7-4.8c0,0,8.5,1.9,14,10.7c0,0-8.8-7.5-13.1-7.6c0,0-12.4-0.1-18.2,2.3
		S514.7,951.6,516.4,950.3z"/>
	
		<ellipse transform="matrix(0.3145 -0.9493 0.9493 0.3145 -581.6674 1119.9253)" class="st14" cx="484.6" cy="962.7" rx="1" ry="0.9"/>
	<ellipse transform="matrix(0.3145 -0.9493 0.9493 0.3145 -550.32 1159.9431)" class="st14" cx="527.9" cy="961" rx="1" ry="0.9"/>
	<path class="st15" d="M519.5,961.2c1.1-2,3-3.7,5.1-4.6c1.1-0.5,2.2-0.7,3.3-1c0.5-0.1,1.1-0.3,1.6-0.3c0.4,0,0.9,0,1.3,0.1
		c4.1,0.6,8,2.3,11.3,4.8"/>
	<path class="st15" d="M490.9,959c-0.9-0.6-3.3-2.1-6.6-1.9c-5.4,0.3-8.4,4.8-8.7,5.3"/>
	<g>
		<path class="st10" d="M541.1,963.4C541.1,963.4,541.1,963.4,541.1,963.4c0.4,0.1,0.7,0.5,0.8,0.7c0.1,0.1,0.1,0.3,0.2,0.5
			c-0.1-0.1-0.3-0.3-0.5-0.5c-0.3-0.2-0.6-0.2-0.7-0.3c0.2,0.1,0.3,0.2,0.3,0.3c0.2,0.3,0.2,0.8,0.2,0.8c-0.2-0.3-0.4-0.4-0.6-0.4
			c-0.3-0.1-0.7-0.1-0.7-0.1c-0.1-0.1,0.3,0.3,0.3,0.4c0.1,0.3,0,0.6-0.1,0.6c-0.1,0,0-0.4-0.3-0.6c-0.1-0.1-0.3-0.2-0.4-0.1
			c0,0,0.1,0.2,0.2,0.4c0.1,0.3,0.2,0.6,0.1,0.6c-0.1,0-0.2-0.4-0.6-0.5c-0.3-0.1-0.6-0.1-0.6,0c0,0.1,0.2,0.2,0.3,0.4
			c0.2,0.2,0.3,0.4,0.3,0.6c-0.2-0.1-0.4-0.2-0.6-0.3c-0.3-0.1-0.6-0.2-0.8-0.2c0.4,0.9,0.4,1.1,0.3,1.1c-0.1,0-0.2-0.2-0.6-0.5
			c-0.2-0.2-0.3-0.3-0.5-0.3c0.1,0.9,0.1,1.1,0.1,1.2c0,0-0.1-0.2-0.4-0.5c-0.1-0.1-0.3-0.3-0.4-0.2c-0.1,0,0,0.2,0,0.4
			c0.1,0.4,0,0.8,0,0.8c-0.1,0-0.1-0.4-0.5-0.7c-0.1-0.1-0.3-0.3-0.4-0.2c-0.1,0,0,0.2-0.1,0.5c0,0.3-0.1,0.7-0.2,0.7
			c0,0-0.1-0.2-0.2-0.5c-0.1-0.2-0.2-0.5-0.3-0.4c-0.1,0,0,0.8-0.1,0.9c-0.1,0-0.2-0.3-0.4-0.5c-0.1-0.1-0.4-0.2-1.3-0.2
			c-0.7,0.1-0.8,0.1-1.6,0.2c-0.4,0-0.6,0-1.1,0c-0.1,0-0.7,0-1.4,0c-0.3,0-0.5,0-0.8,0c-0.1,0-0.4,0-0.8-0.1c-1-0.2-1.8-0.4-2-0.5
			c-0.2-0.1-0.6-0.2-1-0.3c-0.6-0.2-1.1-0.5-1.4-0.6c0,0-1.7-0.8-2.8-1.8c0,0-0.1-0.1-0.1-0.1c0,0,0.7,0.6,1.7,1.1
			c1.1,0.6,2,1,2.3,1.1c0.8,0.3,1.3,0.5,1.8,0.6c0.6,0.2,0.9,0.2,1.3,0.3c0.3,0,0.4,0,0.7,0.1c0.3,0,0.4,0.1,0.8,0.1
			c0.1,0,0.1,0,0.1,0c0.3,0,0.5,0,0.9,0c0.6,0,0.6,0,1,0c0.3,0,0.7,0,1.2-0.1c0.2,0,0.4-0.1,0.7-0.1c0.2,0,0.4-0.1,0.7-0.1
			c0.3-0.1,0.6-0.1,0.9-0.2c0.2-0.1,0.4-0.1,0.7-0.2c0.5-0.1,0.7-0.2,1-0.3c0.2-0.1,0.2-0.1,1.1-0.5c0.7-0.3,0.7-0.3,0.9-0.4
			c0.5-0.2,0.5-0.3,1.1-0.6c1.3-0.7,1.3-0.6,1.5-0.8C540.6,963.6,540.8,963.4,541.1,963.4z"/>
	</g>
	<path class="st10" d="M542.2,970.5"/>
	<path class="st16" d="M495.1,954.5c4.1,3.9,5,7.1,5.2,8.9c0.3,2.5,0.2,9.4,0.2,10v0c0,0-0.2,7.2-2.4,10.7c-0.2,0.3-0.4,0.5-0.4,0.5
		c-0.4,0.5-0.8,0.9-1.1,1.5c-0.6,1-2,4.6-0.2,7.2c0,0,0.5,1,1.4,1.4c0,0,0.1,0,0.1,0c0.1-0.1-0.6-0.6-1.1-1.4
		c-0.2-0.3-0.6-1.1-0.3-1.5c0.1-0.2,0.4-0.3,0.7-0.3c0.1,0,0.2,0,0.4,0.1c0.2,0.1,0.6,0.3,1.1,0.7c0.4,0.3,0.6,0.6,0.7,0.7
		c0.2,0.2,0.3,0.4,0.5,0.6c0.3,0.4,0.4,0.7,0.5,0.8c0.5,0.8,0.7,1.2,0.9,1.4c0.3,0.5,0.7,1.1,1.5,1.5c0.4,0.2,0.9,0.5,1.4,0.3
		c0.3-0.1,0.4-0.4,0.7-0.9c0.2-0.5,0.2-0.7,0.5-1.3c0,0,0.1-0.3,0.3-0.5c0.5-0.8,1.1-1.3,1.3-1.6c0.4-0.3,1.4-1.2,2.9-1.6
		c0.7-0.2,2.6-0.7,3.1,0c0.5,0.7-0.4,2.5-1.7,3.3c-1.4,0.9-3,0.4-3.4,0.3"/>
	<path class="st16" d="M513.1,996.1c1-0.4,2-0.8,3-1.3c0.4-0.2,0.9-0.4,1.2-0.7c0.5-0.5,0.6-1.1,0.7-1.8c0.2-1.8-0.2-3.6-1.2-5.1
		c-0.4-0.7-1-1.3-1.7-1.7c-0.7-0.4-1.6-0.4-2.3-0.1"/>
	<path class="st17" d="M507.3,1024.5c3.1,0.7,6.5-0.8,9.4,0.5"/>
	<path class="st17" d="M506.5,999.3c0.1,0.9,0.4,1.8,0.9,2.5c0.1,0.2,0.2,0.3,0.3,0.5c0.1,0.5-0.2,1-0.5,1.4c-0.5,0.6-1.2,1.3-2,1.2
		c-0.6-0.1-1.1-0.5-1.6-0.9"/>
	<path class="st17" d="M517.5,957.7c-1,1.3-1.8,2.7-2.2,4.3c-0.3,1-0.4,2-0.1,3c0.2,0.7,0.7,1.3,1.1,1.9c1.4,1.8,3,3.8,5.3,4.1"/>
	<path class="st16" d="M488.8,971.6c1.2,0.2,2.6-0.2,3.5-1c0.6-0.5,1.1-1.1,1.7-1.5c1.2-0.7,2.8-0.6,3.6-1.7
		c0.4-0.5,0.5-1.1,0.5-1.2c0.1-0.7-0.1-1.3-0.2-1.5c-0.3-0.7-0.7-1-1.8-1.8c-0.5-0.4-1.2-0.9-2-1.6"/>
	<path d="M505.4,995.2c0,0,0.3-0.6,0.7-1.1c0.2-0.3,0.6-0.7,1.2-1.2c1.3-1,2.6-1.4,2.9-1.4c0.9-0.2,2.4-0.5,2.8,0.1
		c0.5,0.7-0.3,2-1,2.7c-0.2,0.2-0.7,0.7-1.5,0.9c-0.9,0.3-2.1,0.2-2.3-0.2c-0.1-0.4,1-0.9,0.9-1.6c-0.1-0.3-0.3-0.5-0.6-0.6
		c-0.9-0.3-2.1,1-2.5,1.5C505.6,994.8,505.4,995.2,505.4,995.2z"/>
	<path d="M501.3,995.6c-0.1,0.1-2.7-3.2-3.5-2.7c-0.3,0.1-0.3,0.7-0.5,0.7c0,0-0.1,0-0.2-0.3c-0.1-0.2-0.2-0.3-0.2-0.5
		c0-0.1-0.1-0.2-0.1-0.3c-0.1-0.4-0.1-0.6,0-0.8c0.1-0.3,0.4-0.4,0.7-0.4c0.3,0,0.5,0.1,0.7,0.2c0.2,0.1,0.5,0.3,0.8,0.6
		c0.5,0.5,0.9,0.9,1,1.1c0.1,0.2,0.2,0.3,0.6,0.9C501.3,995.4,501.4,995.6,501.3,995.6z"/>
	<path class="st18" d="M482.1,905.1c-11.1,4.4-19.7,14.5-22.3,26.1c-1.1,5.1-1.2,10.5-2.3,15.6c-1.1,5.1-3.6,10.4-8.2,12.9
		c-3.3,1.8-7.2,2.1-10.6,3.7c-5.5,2.5-9.1,8.7-8.7,14.7c0.2,2.4,1,4.8,2.7,6.5c1.8,1.6,4.6,2.2,6.6,1"/>
	<path class="st18" d="M462.5,962c0.2,11.2-0.1,23.9-8.3,31.6c-4.7,4.4-11.4,6.5-15.1,11.7c-3.3,4.7-3.4,11.2-1.5,16.6
		c1.9,5.4,5.6,10.1,9.5,14.3c3.8,4.2,7.9,8.1,12.2,11.7"/>
	<path class="st18" d="M561.1,929.4c-1.6,3.4-0.5,7.6,1.9,10.5c2.4,2.9,6,4.6,9.5,5.7c3.7,1.2,8.1,2.3,9.6,5.8
		c1.4,3.3-0.3,7,0.1,10.6c0.4,4.1,3.5,7.2,5.6,10.8c3.9,6.7,4,15.2,1,22.3c-2.5,6.2-5.1,4.1-15.4,16.7c-6,7.2-8.5,12.1-9.2,17.7
		c-0.3,2.7-0.1,5.1,0.1,6.6"/>
	<path class="st18" d="M551,908.2c7.5-1.8,15.8,4.8,15.7,12.6c0,3.1-1.2,6.2-0.4,9.2c1.4,5.4,8,7.3,13.1,9.7
		c7.1,3.3,12.9,9.4,15.8,16.7c7.6,18.9-0.5,42.4,8.1,49c0.7,0.5,2.8,1.9,3.5,4.5c0.9,3.2-0.7,6.6-2.4,9"/>
	<path class="st19" d="M492.2,1013.8c0,0,1,0.1,2.3,0c3.5-0.2,5.3-1,7.6-0.9c1.2,0.1,1.9,0.2,1.9,0.2c0.7,0.1,1,0.2,1.6,0.2
		c0.2,0,0.5,0,1.5-0.1c1-0.1,1.7-0.2,1.8-0.2c0,0,0.7-0.1,3.6-0.4c1.7-0.2,1.9-0.1,8.6-0.1c0.9,0,3.3,0,3.3,0l0,0
		c0,0-2.7-0.3-5.6-0.7c-2.1-0.3-4.2-0.6-4.9-0.7c-0.3,0-0.8-0.1-1.6-0.1c-0.3,0-1,0-2.1,0.1c-1.1,0.2-1.9,0.4-2.1,0.5
		c-1,0.3-1.2,0.5-1.8,0.4c-0.2,0-0.6-0.1-1.2-0.4c-0.4-0.1-0.8-0.3-1.1-0.4c-1.2-0.5-1.7-0.7-2.5-0.7c0,0-0.1,0-0.2,0
		c-0.6,0.1-1.1,0.3-1.7,0.7c-1.3,0.7-1.4,0.9-1.7,1.1c-1,0.6-1.9,0.8-2.7,1C493.4,1013.8,492.2,1013.7,492.2,1013.8z"/>
	<g>
		<path class="st10" d="M491.1,961.7c-0.4-0.2-1-0.4-1.4-1c0-0.1-0.2-0.3-0.3-0.7c-0.2-0.8,0.1-1.4,0-1.4c-0.1,0-0.2,0.3-0.4,0.9
			c-0.3,0.6-0.5,0.9-0.7,0.9c-0.2,0-0.4-0.5-0.4-0.8c-0.2-0.8,0.2-1.5,0.1-1.5c0,0-0.3,0.4-0.5,0.9c-0.2,0.6-0.3,1.1-0.4,1.4
			c-0.2-0.2-0.4-0.5-0.5-0.9c-0.4-1-0.2-1.9-0.4-1.9c-0.1,0-0.4,0.8-0.4,0.9c-0.2,0.8-0.2,1.5-0.3,1.5c0,0,0,0,0,0
			c0-0.1-0.6-1.2-0.6-1.2c-0.2-1-0.3-1.6-0.3-1.6c-0.1,0-0.1,0.9-0.1,2.8c-0.2-0.2-0.4-0.4-0.7-0.7c-0.1-0.1-0.4-0.4-0.6-1
			c-0.4-0.8-0.5-1.3-0.5-1.3c-0.1,0-0.1,1,0.2,2c0.1,0.4,0.3,0.8,0.4,1c-0.3-0.2-0.7-0.4-1.1-0.8c-0.8-0.9-1-1.9-1.2-1.8
			c-0.1,0-0.1,0.9,0.3,1.8c0.3,0.7,0.6,1,0.5,1.1c-0.1,0.1-0.9-0.4-1.6-1c-0.8-0.8-1.2-1.6-1.2-1.5c-0.1,0,0.3,1.1,0.8,2.2
			c0.3,0.7,0.6,1,0.5,1.2c-0.2,0.2-0.8-0.1-1.1-0.4c-1.2-0.8-1.7-2.1-1.7-2.1c0,0,0.4,1.5,1.6,2.9c0.2,0.2,0.5,0.5,0.4,0.6
			c-0.1,0.1-0.7-0.1-1-0.3c-1.4-0.8-2.1-2-2.2-2c-0.1,0,0.3,1,1.1,2.1c0.5,0.7,1,1.1,0.9,1.2c-0.1,0.1-0.3,0.2-1.3-0.2
			c-0.2-0.2-0.6-0.5-0.9-0.8c-0.7-0.7-1-1.3-1.1-1.2c-0.1,0.1,0.2,1.2,1.1,2.2c0.7,0.9,1.4,1.1,1.4,1.2c-0.1,0.1-1.5-0.3-2.7-1.4
			c-0.7-0.7-1-1.3-1.1-1.3c-0.1,0.1,0.2,1.4,1.3,2.4c0.9,0.8,2.3,1.5,2.8,1c0.1-0.1,0.2-0.3,0.2-0.4c0.4-0.8,0.8-1.4,1.2-1.8
			c0.3-0.4,0.8-0.9,1.5-1.3c0.1-0.1,0.4-0.2,0.6-0.3c0.2-0.1,0.7-0.3,1-0.4c0.7-0.3,2-0.5,3.4-0.4c0.5,0,0.8,0.1,1.4,0.2
			c1.6,0.3,2.7,0.7,2.7,0.7c1.1,0.4,2,0.8,2.7,1.2c0.8,0.5,1.4,0.9,1.6,1c0,0,0.5,0.4,1.8,1.4c0,0-0.4-0.4-0.4-0.4c-1-1-2-1.7-2-1.7
			C492.4,962.3,491.6,961.9,491.1,961.7z"/>
	</g>
	<g>
		<path class="st10" d="M477.6,965.3c-0.3-0.1-0.9,0.9-1.2,1.4c-0.1,0.2-0.2,0.4-0.2,0.5c0.1-0.1,0.3-0.3,0.5-0.5
			c0.3-0.2,0.6-0.2,0.7-0.3c-0.2,0.1-0.3,0.2-0.3,0.3c-0.2,0.3-0.2,0.8-0.2,0.8c0.2-0.3,0.4-0.4,0.6-0.4c0.3-0.1,0.7-0.1,0.7-0.1
			c0.1-0.1-0.3,0.3-0.3,0.4c-0.1,0.3,0,0.6,0.1,0.6c0.1,0,0-0.4,0.3-0.6c0.1-0.1,0.3-0.2,0.4-0.1c0,0-0.1,0.2-0.2,0.4
			c-0.1,0.3-0.2,0.6-0.1,0.6c0.1,0,0.2-0.4,0.6-0.5c0.3-0.1,0.6-0.1,0.6,0c0,0.1-0.2,0.2-0.3,0.4c-0.2,0.2-0.3,0.4-0.3,0.6
			c0.2-0.1,0.4-0.2,0.6-0.3c0.3-0.1,0.6-0.2,0.8-0.2c-0.4,0.9-0.4,1.1-0.3,1.1c0.1,0,0.2-0.2,0.6-0.5c0.2-0.2,0.3-0.3,0.5-0.3
			c-0.1,0.9-0.1,1.1-0.1,1.2c0,0,0.1-0.2,0.4-0.5c0.1-0.1,0.3-0.3,0.4-0.2c0.1,0,0,0.2,0,0.4c-0.1,0.4,0,0.8,0,0.8
			c0.1,0,0.1-0.4,0.5-0.7c0,0,0.3-0.3,0.4-0.2c0.1,0.1-0.2,0.7-0.1,0.8c0.1,0.1,0.3-0.3,0.7-0.4c0.3-0.1,0.6,0,0.8,0
			c0.6,0.1,1.2,0.2,2.4,0.2c1,0,1.7-0.1,2.5-0.3c0.4-0.1,1-0.2,1.7-0.5c1.2-0.4,2-0.9,2.4-1.2c0.4-0.3,1-0.7,1.6-1.3
			c0.6-0.6,1-1.3,1-1.3c0,0-0.2,0.2-0.4,0.4c-0.3,0.3-1.4,1.5-2.7,2.3c-0.5,0.3-0.9,0.5-0.9,0.5c-0.2,0.1-0.4,0.2-0.5,0.2
			c-0.3,0.1-0.6,0.2-0.8,0.3c-0.4,0.1-0.6,0.2-0.7,0.2c-0.1,0-0.2,0-0.3,0.1c-0.5,0.1-0.7,0.2-1,0.2c-0.7,0.1-1.3,0.1-1.8,0.1
			c-0.3,0-0.6,0-0.7,0c-0.3,0-0.5,0-0.8-0.1c-0.3,0-0.6-0.1-0.8-0.2c-0.2-0.1-0.5-0.1-0.7-0.2c-0.3-0.1-0.5-0.2-1-0.4
			c-0.5-0.2-0.8-0.3-1-0.4c-0.2-0.1-0.2-0.1-0.5-0.3c-0.2-0.1-0.3-0.2-0.5-0.3c-0.1-0.1-0.2-0.1-0.3-0.2c0,0-0.2-0.1-0.4-0.3
			c-0.2-0.2-0.4-0.3-0.9-0.7c-0.5-0.4-0.6-0.5-0.7-0.6c0,0,0,0,0-0.1C477.7,965.4,477.7,965.3,477.6,965.3z"/>
	</g>
	<g>
		<path class="st10" d="M528,958.4c0.1,0,0.4-0.4,0.6-0.8c0.3-0.8,0.2-1.5,0.3-1.5c0.1,0,0.3,0.6,0.4,1.4c0,0.4,0,0.7,0.1,0.7
			c0.1,0,0.4-0.3,0.5-0.6c0.5-1,0.1-1.9,0.3-2c0.1,0,0.4,0.6,0.5,1.3c0.1,0.5,0.1,1,0.1,1.3c0.1-0.2,0.3-0.4,0.5-0.7
			c0.4-1,0.2-1.9,0.4-1.9c0.1,0,0.3,0.5,0.4,0.9c0.2,0.9,0.1,1.8,0.1,1.8c0.2-0.3,0.4-0.9,0.6-1.5c0.3-1,0.4-1.5,0.5-1.5
			c0.1,0,0.2,0.9,0.1,1.8c-0.1,0.5-0.2,1-0.3,1.3c0.3-0.2,0.6-0.6,0.9-1c0.3-0.5,0.6-0.8,0.6-1c0.4-0.8,0.5-1.3,0.5-1.3
			c0.1,0,0.1,1-0.2,2c-0.2,0.7-0.6,1.2-0.9,1.5c0.4-0.3,1-0.7,1.6-1.3c0.8-0.9,1-1.9,1.2-1.8c0.1,0,0.1,0.9-0.3,1.8
			c-0.5,1.2-1.4,1.7-1.3,1.8c0.1,0.1,1.3-0.5,2.4-1.7c0.8-0.9,1.1-1.6,1.2-1.5c0.1,0.1-0.2,1.2-0.8,2.2c-0.6,1.1-1.2,1.5-1.1,1.7
			c0.1,0.2,1-0.3,1.8-0.9c1.2-1,1.7-2.1,1.7-2.1c0,0-0.4,1.5-1.6,2.9c-0.2,0.2-0.5,0.5-0.4,0.6c0.1,0.1,0.7-0.1,1-0.3
			c1.4-0.8,2.1-2,2.2-2c0.1,0-0.3,1-1.1,2.1c-0.5,0.7-1,1.1-0.9,1.2c0.1,0.1,0.3,0.2,1.3-0.2c0.2-0.2,0.6-0.5,0.9-0.8
			c0.7-0.7,1-1.3,1.1-1.2c0.1,0.1-0.2,1.2-1.1,2.2c-0.5,0.5-0.8,0.7-0.8,0.8c0.1,0.1,1.2-0.2,2.1-1c0.7-0.6,1-1.3,1.1-1.3
			c0.1,0.1-0.2,1.6-1.3,2.4c0,0-0.2,0.2-1.9,1c-0.2-0.2-0.6-0.4-1-0.6c-0.3-0.1-0.4-0.2-0.8-0.4c-0.8-0.4-1.2-0.6-1.5-0.8
			c-0.8-0.4-1.3-0.7-2.1-1c-0.5-0.2-0.8-0.4-1.1-0.5c-1.2-0.5-1.8-0.8-2.7-1c-0.3-0.1-0.8-0.2-1.4-0.3c-0.7-0.1-1.3-0.1-1.7,0
			c-0.5,0-0.8,0.1-0.9,0.1c-0.3,0-0.6,0.1-0.9,0.2c-1,0.3-1.8,0.7-2.1,0.9c-0.7,0.4-1.2,0.7-1.7,1c-0.6,0.4-1,0.7-1.5,1.1
			c-0.5,0.4-1.1,0.8-1.1,0.9c-0.5,0.4-0.7,0.6-0.8,0.6c0,0,0.6-0.7,1.3-1.3c0.6-0.5,1.1-1,1.7-1.4c0.2-0.2,0.5-0.4,1.2-0.8
			c1-0.7,0.9-0.6,1-0.7c1-0.9,0.9-2.4,1-2.4c0,0,0,0.3,0.1,0.8c0,0.6,0.1,1.1,0.3,1.1c0.2,0.1,0.7-0.6,0.9-1.3
			c0.2-0.8,0.1-1.4,0.1-1.4c0.1,0,0.4,0.6,0.4,1.3C528,958.1,527.9,958.4,528,958.4z"/>
	</g>
	<path class="st15" d="M521.3,962.7c-0.1,0.1-0.3,0.5-0.2,1c0,0.4,0.2,0.7,0.3,0.9"/>
	<path class="st20" d="M539.1,962.3c0.1,0.1,0.3,0.4,0.4,0.8c0.1,0.6-0.1,1.1-0.2,1.2"/>
	<path class="st10" d="M520,963.7"/>
	<path class="st20" d="M494.4,964c0.1,0.2,0.3,0.5,0.3,0.9c0.1,0.7,0,1.2-0.1,1.5"/>
	<path class="st20" d="M478.3,963.9c-0.1,0.2-0.2,0.7-0.2,1.2c0,0.5,0.2,0.8,0.3,1.1"/>
</g>
</svg>
