<svg xmlns="http://www.w3.org/2000/svg" viewBox="0 0 653.96 2994.28"><defs><style>.cls-1{fill:#3e4752;}.cls-2,.cls-8{fill:#03313f;}.cls-3,.cls-6{fill:#071c26;}.cls-3,.cls-7{opacity:0.5;}.cls-4,.cls-7{fill:#f18889;}.cls-5{fill:#f09ea2;}.cls-8{opacity:0.41;}.cls-9{fill:#fff;opacity:0.3;}</style></defs><title>backgroundx</title><g id="Lager_2" data-name="Lager 2"><g id="Lager_1-2" data-name="Lager 1"><rect class="cls-1" width="652.93" height="2991.18"/><path class="cls-2" d="M654,2994.28v0s0-.51,0-1.46-5.09-379-8-439.75c-14.6-304.65-348.77-443.73-341.68-737.59,5.18-214.19,185.37-251.18,179.17-452.6-5.59-181.71-152.85-171.31-336.64-550.45,0,0-131.46-271.18-146-561.25v-.47h0S2.57,1062.2,3.37,1751.46c.35,308.44.66,732.89.48,1242.82H654Z"/><path class="cls-3" d="M465.61,2994.28v-1.48c0-.8-3.63-379-5.7-439.75-10.38-304.65-248.2-443.73-243.15-737.59,3.68-214.19,131.91-251.18,127.5-452.6-4-181.71-108.78-171.31-239.57-550.45,0,0-93.55-271.18-103.92-561.25v-.47h0S2.05,1062.2,2.61,1751.46c.26,308.44.48,732.89.35,1242.82H465.61Z"/><circle class="cls-4" cx="326.45" cy="497.79" r="120.54"/><circle class="cls-5" cx="444.72" cy="593.4" r="9.72"/><circle class="cls-5" cx="464.15" cy="537.97" r="4.86"/><circle class="cls-5" cx="469.01" cy="571.07" r="4.86"/><circle class="cls-5" cx="183.93" cy="459.61" r="4.86"/><circle class="cls-5" cx="305.15" cy="482.72" r="72.87"/><polygon class="cls-6" points="528.41 2626.14 405.39 2994.28 651.43 2994.28 528.41 2626.14"/><polygon class="cls-6" points="422.46 2789.96 490.74 2994.28 354.18 2994.28 422.46 2789.96"/><path class="cls-7" d="M354.18,2994.28h67.93V2790Q388.15,2892.13,354.18,2994.28Z"/><polygon class="cls-2" points="151.95 2547.97 301.09 2994.28 2.8 2994.28 151.95 2547.97"/><path class="cls-7" d="M3.8,2994.28H152.17V2548Q78,2771.13,3.8,2994.28Z"/><polygon class="cls-2" points="285.9 2738.3 354.18 2994.28 217.62 2994.28 285.9 2738.3"/><path class="cls-7" d="M217.62,2994.28h67.93v-256Q251.59,2866.3,217.62,2994.28Z"/><polygon class="cls-4" points="77.76 2771.12 151.95 2547.97 151.95 2862.36 77.76 2771.12"/><polygon class="cls-8" points="454.65 2849.3 528.83 2626.14 528.83 2940.54 454.65 2849.3"/><path class="cls-9" d="M654,2994.28v0s0-.51,0-1.46-5.09-379-8-439.75c-14.6-304.65-348.77-443.73-341.68-737.59,5.18-214.19,185.37-251.18,179.17-452.6-5.59-181.71-152.85-171.31-336.64-550.45,0,0-131.46-271.18-146-561.25v-.47h0S2.57,1062.2,3.37,1751.46c.35,308.44.66,732.89.48,1242.82H654Z"/></g></g></svg>