<svg xmlns="http://www.w3.org/2000/svg" viewBox="0 0 653.96 3852.53"><defs><style>.cls-1{fill:#3e4752;}.cls-2,.cls-8{fill:#03313f;}.cls-3,.cls-6{fill:#071c26;}.cls-3,.cls-7{opacity:0.5;}.cls-4,.cls-7{fill:#f18889;}.cls-5{fill:#f09ea2;}.cls-8{opacity:0.41;}.cls-9{fill:#fff;opacity:0.3;}</style></defs><title>backgroundimage2</title><g id="Lager_2" data-name="Lager 2"><g id="Lager_1-2" data-name="Lager 1"><rect class="cls-1" width="652.93" height="3848.75"/><path class="cls-2" d="M654,3852.53v0s0-.62,0-1.79c0-1-5.09-462.13-8-536.21-14.6-371.47-348.77-541.06-341.68-899.39,5.18-261.16,185.37-306.28,179.17-551.87-5.59-221.57-152.85-208.89-336.64-671.2,0,0-131.46-330.66-146-684.37v-.57h0s1.81,989.52,2.61,1830c.35,376.09.66,893.66.48,1515.44H654Z"/><path class="cls-3" d="M465.61,3852.53v-1.81c0-1-3.63-462.13-5.7-536.21-10.38-371.47-248.2-541.06-243.15-899.39,3.68-261.16,131.91-306.28,127.5-551.87-4-221.57-108.78-208.89-239.57-671.2,0,0-93.55-330.66-103.92-684.37v-.57h0s1.29,989.52,1.85,1830c.26,376.09.48,893.66.35,1515.44H465.61Z"/><circle class="cls-4" cx="326.47" cy="663.71" r="156.59"/><circle class="cls-5" cx="480.1" cy="787.92" r="12.62"/><circle class="cls-5" cx="505.35" cy="715.91" r="6.31"/><circle class="cls-5" cx="511.66" cy="758.91" r="6.31"/><circle class="cls-5" cx="141.31" cy="614.11" r="6.31"/><circle class="cls-5" cx="298.78" cy="644.14" r="94.67"/><polygon class="cls-6" points="528.41 3403.64 405.39 3852.53 651.43 3852.53 528.41 3403.64"/><polygon class="cls-6" points="422.46 3603.39 490.74 3852.53 354.18 3852.53 422.46 3603.39"/><path class="cls-7" d="M354.18,3852.53h67.93V3603.39Q388.15,3728,354.18,3852.53Z"/><polygon class="cls-2" points="151.95 3308.31 301.09 3852.53 2.8 3852.53 151.95 3308.31"/><path class="cls-7" d="M3.8,3852.53H152.17V3308.31Q78,3580.43,3.8,3852.53Z"/><polygon class="cls-2" points="285.9 3540.4 354.18 3852.53 217.62 3852.53 285.9 3540.4"/><path class="cls-7" d="M217.62,3852.53h67.93V3540.4Q251.59,3696.47,217.62,3852.53Z"/><polygon class="cls-4" points="77.76 3580.42 151.95 3308.31 151.95 3691.68 77.76 3580.42"/><polygon class="cls-8" points="454.65 3675.75 528.83 3403.64 528.83 3787 454.65 3675.75"/><path class="cls-9" d="M654,3852.53v0s0-.62,0-1.79c0-1-5.09-462.13-8-536.21-14.6-371.47-348.77-541.06-341.68-899.39,5.18-261.16,185.37-306.28,179.17-551.87-5.59-221.57-152.85-208.89-336.64-671.2,0,0-131.46-330.66-146-684.37v-.57h0s1.81,989.52,2.61,1830c.35,376.09.66,893.66.48,1515.44H654Z"/></g></g></svg>