<svg xmlns="http://www.w3.org/2000/svg" viewBox="0 0 648.63 2527.9"><defs><style>.cls-1,.cls-9{fill:#071c26;}.cls-2{fill:#faede4;}.cls-3{fill:#04151c;}.cls-10,.cls-4,.cls-6{fill:#f18889;}.cls-5{fill:#f09ea2;}.cls-6,.cls-9{opacity:0.5;}.cls-7,.cls-8{fill:#03313f;}.cls-8{opacity:0.41;}.cls-10{font-size:3.31px;font-family:ArcaMajora3-Heavy, "Arca Majora 3";font-weight:800;}.cls-11{letter-spacing:-0.02em;}.cls-12{fill:#d7d6d5;}.cls-13{fill:#fff;opacity:0.15;}.cls-14{fill:#0a222b;}</style></defs><title>rocket2</title><g id="Lager_2" data-name="Lager 2"><g id="Lager_1-2" data-name="Lager 1"><path class="cls-1" d="M322.27,1928.9A565.84,565.84,0,0,1,321,2095.74c-1.23,7.85-5.21,25.65-13.16,61.25-10.08,45.17-19.18,82.21-42.93,114.48-8,10.81-16.82,20.06-26.31,18.94-8.58-1-14-10.09-17.39-16-13.7-24.07-10.78-53.47-8-69.11,4,3.41,9.24,4.46,13.47,2.52,5.83-2.67,9.06-10.73,6.27-18.4.31-.27,4.4-3.8,3.88-8.48s-5.63-9-12-8.34c2.92-5.63.91-12.5-3.86-15.29-5.21-3-12.58-.53-15.15,6-.54-.27-6.4-3.06-11.09-.05-4.88,3.13-6.77,11.44-2.67,18.72,0,0-12.94,4.67-2.83,39.23,0,0-13.79,16.81-3.86,41.1,0,0-11.95,29.06-3.6,51,0,0-7.22,10,2.3,36,0,0-2.6,66,24.23,64,11.24,18.95,31.59,46,64.86,57.57,17.68,6.15,23.05,2.38,64.75,3.4,75.92,1.86,98.2,15.33,123.09-1.61,15.16-10.32,20.54-25.95,27.74-41.37,24.23-52,71.84-211.86,43.27-209.85,0,0-2.16-1.9-7.57,5.14,0,0-2-31.26-17.27,0,2.06-8.38-3.56-16-9.79-16.48-5.32-.45-11.13,4.24-12.21,11.34,0,0-2-30-16.92-17.53,6.37-5.5,7.62-14.48,3.83-20.17-4.11-6.16-12.26-5.65-12.63-5.62-2.43-7.69-9.82-11.08-14.49-9.19-5,2-8.29,10.61-4,18.19-2.59.36-8.8,1.62-12.33,6.76-5.22,7.62-2.9,21.35,7.83,31.13-5,18-12.88,39.08-24.22,39.84-25.89,1.74-51.69-103.83-54-113.58-11.39-47.6-21.75-122.77-3.94-221.81Z"/><path class="cls-1" d="M374.68,1975.86a171.13,171.13,0,0,0-10.07-84.08,94.21,94.21,0,0,0-52.85.49,168.83,168.83,0,0,0-9.36,37.13,173.18,173.18,0,0,0,.19,47.34,66.7,66.7,0,0,0-27.2,54.4,67.75,67.75,0,0,0,3.31,20.72,68.18,68.18,0,0,1,34.23-36.32c1,2.59,2.12,5.13,3.28,7.65,1.32-.55,2.66-1.06,4-1.52l0,5.74,7.6,0A96,96,0,0,0,339,2060.69a95.87,95.87,0,0,0,11.37-33.41l7.84,0,0-6c1.18.36,2.34.77,3.49,1.21,1.17-2.64,2.28-5.32,3.31-8a68,68,0,0,1,35.7,34.85,68.45,68.45,0,0,0,2.5-18.69A66.65,66.65,0,0,0,374.68,1975.86Z"/><path class="cls-2" d="M322.27,1962.89A565.84,565.84,0,0,1,321,2129.73c-1.23,7.85-5.21,25.65-13.16,61.25-10.08,45.17-19.18,82.21-42.93,114.47-8,10.81-16.82,20.07-26.31,19-8.58-1-14-10.09-17.39-16-13.7-24.06-10.78-53.47-8-69.1,4,3.41,9.24,4.45,13.47,2.52,5.83-2.67,9.06-10.74,6.27-18.41.31-.26,4.4-3.8,3.88-8.47s-5.63-9-12-8.34c2.92-5.63.91-12.51-3.86-15.29-5.21-3-12.58-.54-15.15,6-.54-.26-6.4-3.05-11.09,0-4.88,3.13-6.77,11.44-2.67,18.72,0,0-12.94,4.67-2.83,39.23,0,0-13.79,16.81-3.86,41.09,0,0-11.95,29.06-3.6,51,0,0-7.22,10,2.3,36,0,0-2.6,65.95,24.23,63.95,11.24,18.94,31.59,46,64.86,57.56,17.68,6.16,23.05,2.39,64.75,3.41,75.92,1.86,98.2,15.32,123.09-1.61,15.16-10.32,20.54-26,27.74-41.37,24.23-52,71.84-211.87,43.27-209.85,0,0-2.16-1.9-7.57,5.13,0,0-2-31.26-17.27,0,2.06-8.38-3.56-15.95-9.79-16.47-5.32-.45-11.13,4.23-12.21,11.34,0,0-2-30-16.92-17.53,6.37-5.51,7.62-14.49,3.83-20.17-4.11-6.16-12.26-5.65-12.63-5.62-2.43-7.69-9.82-11.08-14.49-9.19-5,2-8.29,10.6-4,18.19-2.59.35-8.8,1.61-12.33,6.76-5.22,7.61-2.9,21.34,7.83,31.13-5,17.95-12.88,39.07-24.22,39.84-25.89,1.74-51.69-103.83-54-113.58-11.39-47.61-21.75-122.77-3.94-221.81Z"/><circle class="cls-3" cx="333.42" cy="421.92" r="122.11"/><path class="cls-3" d="M468,240.49a27.26,27.26,0,0,0,37.15-37.15Z"/><polygon class="cls-3" points="529.89 272.9 537.53 265.26 537.44 251.24 537.34 251.34 512.97 226.96 491.59 248.34 515.97 272.71 515.87 272.81 529.89 272.9"/><circle class="cls-3" cx="480.84" cy="216.21" r="2.19"/><rect class="cls-3" x="501.1" y="208.5" width="2.35" height="58.3" transform="translate(-20.93 424.77) rotate(-45)"/><rect class="cls-3" x="511.22" y="219.41" width="3.94" height="58.3" transform="translate(326.07 -290.08) rotate(45)"/><rect class="cls-3" x="526.24" y="202.08" width="37.7" height="29.15" transform="translate(6.45 448.9) rotate(-45)"/><rect class="cls-3" x="462.44" y="265.89" width="37.7" height="29.15" transform="translate(-57.36 422.47) rotate(-45)"/><circle class="cls-4" cx="325.96" cy="407.09" r="122.11"/><circle class="cls-5" cx="445.76" cy="503.95" r="9.84"/><circle class="cls-5" cx="465.45" cy="447.79" r="4.92"/><circle class="cls-5" cx="470.37" cy="481.33" r="4.92"/><circle class="cls-5" cx="181.58" cy="368.41" r="4.92"/><circle class="cls-5" cx="304.37" cy="391.83" r="73.82"/><polygon class="cls-1" points="525.61 2221.84 402.59 2527.9 648.63 2527.9 525.61 2221.84"/><path class="cls-6" d="M648.63,2527.9H526.25V2221.83Q587.43,2374.88,648.63,2527.9Z"/><polygon class="cls-1" points="419.66 2358.03 487.94 2527.9 351.38 2527.9 419.66 2358.03"/><path class="cls-6" d="M351.38,2527.9h67.93V2358Z"/><polygon class="cls-7" points="149.15 2156.84 298.3 2527.9 0 2527.9 149.15 2156.84"/><path class="cls-6" d="M1,2527.9H149.38V2156.84Z"/><polygon class="cls-7" points="283.1 2315.08 351.38 2527.9 214.82 2527.9 283.1 2315.08"/><path class="cls-6" d="M214.82,2527.9h67.93V2315.08Q248.79,2421.49,214.82,2527.9Z"/><path class="cls-4" d="M75,2342.37l74.19-185.53q.1,166.42.23,332.84Z"/><path class="cls-8" d="M468.73,2363.3q28.65-70.73,57.31-141.46v261.38Q497.38,2423.27,468.73,2363.3Z"/><circle class="cls-5" cx="569.41" cy="49.03" r="9.84"/><circle class="cls-5" cx="579.26" cy="4.92" r="4.92"/><circle class="cls-5" cx="594.02" cy="26.41" r="4.92"/><circle class="cls-5" cx="82.53" cy="183.98" r="4.92"/><circle class="cls-5" cx="58.98" cy="158.34" r="4.92"/><path class="cls-7" d="M466.06,232.07a27.62,27.62,0,0,0,37.64-37.64Z"/><polygon class="cls-7" points="528.8 264.92 536.55 257.18 536.45 242.97 536.35 243.07 511.65 218.37 489.99 240.03 514.69 264.73 514.59 264.83 528.8 264.92"/><circle class="cls-7" cx="479.1" cy="207.48" r="2.22"/><rect class="cls-7" x="499.63" y="199.66" width="2.38" height="59.07" transform="translate(-15.38 421.27) rotate(-45)"/><rect class="cls-7" x="509.89" y="210.72" width="3.99" height="59.07" transform="translate(319.81 -291.59) rotate(45)"/><rect class="cls-7" x="525.11" y="193.16" width="38.2" height="29.54" transform="translate(12.37 445.72) rotate(-45)"/><rect class="cls-7" x="460.45" y="257.82" width="38.2" height="29.54" transform="translate(-52.29 418.93) rotate(-45)"/><rect class="cls-2" x="460.39" y="271.58" width="7.42" height="7.42" transform="translate(-58.72 408.8) rotate(-45)"/><rect class="cls-2" x="466.68" y="277.86" width="7.42" height="7.42" transform="translate(-61.33 415.09) rotate(-45)"/><rect class="cls-2" x="472.97" y="284.15" width="7.42" height="7.42" transform="translate(-63.93 421.38) rotate(-45)"/><rect class="cls-2" x="466.85" y="265.12" width="7.42" height="7.42" transform="translate(-52.27 411.47) rotate(-45)"/><rect class="cls-2" x="473.14" y="271.41" width="7.42" height="7.42" transform="translate(-54.87 417.76) rotate(-45)"/><rect class="cls-2" x="479.43" y="277.7" width="7.42" height="7.42" transform="translate(-57.48 424.05) rotate(-45)"/><rect class="cls-2" x="473.39" y="258.58" width="7.42" height="7.42" transform="translate(-45.73 414.18) rotate(-45)"/><rect class="cls-2" x="479.68" y="264.87" width="7.42" height="7.42" transform="translate(-48.33 420.47) rotate(-45)"/><rect class="cls-2" x="485.97" y="271.16" width="7.42" height="7.42" transform="translate(-50.94 426.76) rotate(-45)"/><rect class="cls-2" x="530.29" y="201.85" width="7.42" height="7.42" transform="translate(11.05 437.8) rotate(-45)"/><rect class="cls-2" x="536.58" y="208.14" width="7.42" height="7.42" transform="translate(8.45 444.09) rotate(-45)"/><rect class="cls-2" x="542.87" y="214.43" width="7.42" height="7.42" transform="translate(5.84 450.38) rotate(-45)"/><rect class="cls-2" x="536.75" y="195.4" width="7.42" height="7.42" transform="translate(17.51 440.48) rotate(-45)"/><rect class="cls-2" x="543.04" y="201.69" width="7.42" height="7.42" transform="translate(14.9 446.77) rotate(-45)"/><rect class="cls-2" x="549.32" y="207.97" width="7.42" height="7.42" transform="translate(12.3 453.05) rotate(-45)"/><rect class="cls-2" x="543.29" y="188.85" width="7.42" height="7.42" transform="translate(24.05 443.19) rotate(-45)"/><rect class="cls-2" x="549.58" y="195.14" width="7.42" height="7.42" transform="translate(21.44 449.48) rotate(-45)"/><rect class="cls-2" x="555.87" y="201.43" width="7.42" height="7.42" transform="translate(18.84 455.76) rotate(-45)"/><path class="cls-9" d="M477.53,205.94a2.23,2.23,0,0,0,0,3.14,2.21,2.21,0,0,0,2.05.59l4.46,4.46-18,18a27.61,27.61,0,0,0,32.27-3.69l1.65,1.65-10,10,24.7,24.7-.1.1,14.21.09,3.87-3.87Z"/><text class="cls-10" transform="translate(508.9 234.05) rotate(45)">hedylity <tspan class="cls-11" x="14.81" y="0">t</tspan><tspan x="16.1" y="0">echnology</tspan></text><path class="cls-4" d="M369.51,1902a135.45,135.45,0,0,1-1.55,18.37,131.74,131.74,0,0,1-8.57,30.6q-1.33,3.21-2.83,6.35c-.94-.37-1.88-.71-2.84-1a49.05,49.05,0,0,0-5.69-1.51c0-.18,0-.36,0-.55.13-1.6.21-3.22.24-4.85a75.67,75.67,0,0,0-9.12-37.33,75.64,75.64,0,0,0-10.9,38.07c0,1.28,0,2.55,0,3.81,0,.23,0,.46,0,.69a50.33,50.33,0,0,0-5.63,1.4c-1.12.34-2.23.73-3.32,1.15q-1.35-3-2.55-6.16a131.86,131.86,0,0,1-7.83-31.12,134.83,134.83,0,0,1,.6-37.77,132.13,132.13,0,0,1,30.45-65.67,132,132,0,0,1,28.55,67.87A134.15,134.15,0,0,1,369.51,1902Z"/><path class="cls-7" d="M369.06,1921.73a135,135,0,0,0,1.6-18.79,136.69,136.69,0,0,0-.92-18.07,133.81,133.81,0,0,0-7.81-31.92,82.18,82.18,0,0,0-44.61-.48,133.63,133.63,0,0,0-8.51,30.14,136.44,136.44,0,0,0-.61,38.63,54,54,0,0,0-21.41,60.91,56.51,56.51,0,0,1,29.49-29.07c.83,2.13,1.71,4.22,2.65,6.3q1.68-.64,3.42-1.17l-.08,4.68,6.42.1a76.57,76.57,0,0,0,8.84,27.37,76.52,76.52,0,0,0,10.14-27.08l6.62.11.08-4.91c1,.32,2,.67,2.92,1,1-2.14,2-4.3,2.93-6.5a56.55,56.55,0,0,1,29.56,29,54,54,0,0,0-20.72-60.34Z"/><path class="cls-12" d="M348.77,1951.42c0,1.67-.1,3.32-.24,5,0,.19,0,.37,0,.56-.18,2.14-.46,4.26-.82,6.34a76.52,76.52,0,0,1-10.14,27.08,76.57,76.57,0,0,1-8.84-27.37c-.25-2-.43-4.12-.52-6.22l0-.71c0-1.29-.06-2.58,0-3.89a76.83,76.83,0,0,1,11.25-38.94A76.75,76.75,0,0,1,348.77,1951.42Z"/><circle class="cls-4" cx="339.54" cy="1881.47" r="17.27"/><circle class="cls-2" cx="339.56" cy="1881.47" r="13.65"/><path class="cls-12" d="M339.77,1867.82a13.68,13.68,0,0,0-13.23,9.52,13.66,13.66,0,0,1,21.18,15.07,13.65,13.65,0,0,0-8-24.59Z"/><path class="cls-7" d="M339.15,1913.4a76.71,76.71,0,0,0-11,38.6c0,1.3,0,2.6,0,3.89l0,.71c.09,2.09.27,4.17.52,6.21a76.51,76.51,0,0,0,8.84,27.37c.15-.24.29-.48.43-.72Z"/><path class="cls-12" d="M287.5,1972.28c.25-16.24,9.06-30.61,22.68-40-.63-3.24-1.16-6.52-1.56-9.85a53,53,0,0,0-22.23,42.7,54.79,54.79,0,0,0,1.43,13.34A46.85,46.85,0,0,1,287.5,1972.28Z"/><path class="cls-12" d="M388.54,1973c.25-16.18-8.26-30.77-21.84-40.56.75-3.2,1.39-6.46,1.9-9.75a52.49,52.49,0,0,1,21.3,43.22,53.91,53.91,0,0,1-1.88,13.24A44.49,44.49,0,0,0,388.54,1973Z"/><path class="cls-13" d="M338.89,1818s38.35,61.78,9.81,139.67a11.75,11.75,0,0,1,6.74,1.53S390.61,1878.93,338.89,1818Z"/><path class="cls-14" d="M317.31,1853.14c-.25,2-.58,4.94-.92,8.45-1.37,14.06-2.17,30.2-1.85,40.64.65,21.19,6.64,41.58,11.91,55.84a15.8,15.8,0,0,0-2.5,0,12.29,12.29,0,0,0-5,1.33,132.84,132.84,0,0,1-1.68-106.24Z"/><path class="cls-14" d="M317.32,1852.47l1.36-3.18s21.79-7.52,42.07.66l1.18,3a85,85,0,0,0-44.61-.48Z"/></g></g></svg>