<svg xmlns="http://www.w3.org/2000/svg" viewBox="0 0 653.46 2624.14"><defs><style>.cls-1,.cls-3{fill:#071c26;}.cls-2,.cls-7{fill:#03313f;}.cls-3,.cls-6{opacity:0.5;}.cls-4,.cls-6{fill:#f18889;}.cls-5{fill:#f09ea2;}.cls-7{opacity:0.41;}.cls-8{fill:#faede4;}</style></defs><title>satellit</title><g id="Lager_2" data-name="Lager 2"><g id="Lager_1-2" data-name="Lager 1"><rect class="cls-1" width="652.93" height="2624.14"/><path class="cls-2" d="M653.46,2624.14v0s0-.48,0-1.39-5.09-362.5-8-420.61c-14.6-291.38-348.77-424.41-341.67-705.48,5.17-204.86,185.36-240.25,179.16-432.89C477.35,890,330.09,899.9,146.3,537.26c0,0-131.46-259.37-146-536.82V0h0S2.07,776.18,2.87,1435.43c.35,295,.66,701,.48,1188.71H653.46Z"/><path class="cls-3" d="M465.11,2624.14v-1.41c0-.77-3.63-362.5-5.7-420.61-10.38-291.38-248.2-424.41-243.15-705.48,3.68-204.86,131.92-240.25,127.51-432.89C339.79,890,235,899.9,104.19,537.26c0,0-93.55-259.37-103.92-536.82V0h0S1.55,776.18,2.11,1435.43c.26,295,.48,701,.35,1188.71H465.11Z"/><circle class="cls-4" cx="328.26" cy="503.33" r="122.11"/><circle class="cls-5" cx="448.06" cy="600.19" r="9.84"/><circle class="cls-5" cx="467.75" cy="544.04" r="4.92"/><circle class="cls-5" cx="472.67" cy="577.57" r="4.92"/><circle class="cls-5" cx="183.88" cy="464.66" r="4.92"/><circle class="cls-5" cx="306.68" cy="488.07" r="73.82"/><polygon class="cls-1" points="527.91 2318.08 404.89 2624.14 650.93 2624.14 527.91 2318.08"/><path class="cls-6" d="M650.93,2624.14H528.55V2318.08Z"/><polygon class="cls-1" points="421.96 2454.27 490.24 2624.14 353.68 2624.14 421.96 2454.27"/><path class="cls-6" d="M353.68,2624.14h67.93V2454.27Q387.65,2539.22,353.68,2624.14Z"/><polygon class="cls-2" points="151.45 2253.09 300.6 2624.14 2.3 2624.14 151.45 2253.09"/><path class="cls-6" d="M3.3,2624.14H151.68V2253.08Z"/><polygon class="cls-2" points="285.4 2411.33 353.68 2624.14 217.12 2624.14 285.4 2411.33"/><path class="cls-6" d="M217.12,2624.14h67.93V2411.33Q251.09,2517.74,217.12,2624.14Z"/><polygon class="cls-4" points="77.26 2438.61 151.45 2253.09 151.45 2514.47 77.26 2438.61"/><polygon class="cls-7" points="454.15 2503.61 528.34 2318.08 528.34 2579.47 454.15 2503.61"/><circle class="cls-5" cx="571.71" cy="145.27" r="9.84"/><circle class="cls-5" cx="581.56" cy="101.17" r="4.92"/><circle class="cls-5" cx="596.32" cy="122.65" r="4.92"/><circle class="cls-5" cx="84.83" cy="280.22" r="4.92"/><circle class="cls-5" cx="61.28" cy="254.59" r="4.92"/><circle class="cls-5" cx="509.71" cy="1114.27" r="9.84"/><circle class="cls-5" cx="519.56" cy="1070.17" r="4.92"/><circle class="cls-5" cx="534.32" cy="1091.65" r="4.92"/><circle class="cls-5" cx="136.68" cy="863" r="9.84"/><circle class="cls-5" cx="141.61" cy="910.04" r="4.92"/><circle class="cls-5" cx="118.05" cy="884.4" r="4.92"/><path class="cls-2" d="M468.36,328.32A27.62,27.62,0,0,0,506,290.68Z"/><polygon class="cls-2" points="531.1 361.17 538.85 353.42 538.75 339.21 538.65 339.31 513.95 314.61 492.29 336.27 516.99 360.97 516.89 361.07 531.1 361.17"/><circle class="cls-2" cx="481.4" cy="303.72" r="2.22"/><rect class="cls-2" x="501.93" y="295.9" width="2.38" height="59.07" transform="translate(-82.76 451.08) rotate(-45)"/><rect class="cls-2" x="512.19" y="306.96" width="3.99" height="59.07" transform="translate(388.54 -265.02) rotate(45)"/><rect class="cls-2" x="527.41" y="289.4" width="38.2" height="29.54" transform="translate(-55.01 475.53) rotate(-45)"/><rect class="cls-2" x="462.75" y="354.06" width="38.2" height="29.54" transform="translate(-119.67 448.75) rotate(-45)"/><rect class="cls-8" x="462.69" y="367.82" width="7.42" height="7.42" transform="translate(-126.1 438.61) rotate(-45)"/><rect class="cls-8" x="468.98" y="374.11" width="7.42" height="7.42" transform="translate(-128.71 444.9) rotate(-45)"/><rect class="cls-8" x="475.27" y="380.4" width="7.42" height="7.42" transform="translate(-131.31 451.19) rotate(-45)"/><rect class="cls-8" x="469.15" y="361.37" width="7.42" height="7.42" transform="translate(-119.65 441.29) rotate(-45)"/><rect class="cls-8" x="475.44" y="367.66" width="7.42" height="7.42" transform="translate(-122.26 447.58) rotate(-45)"/><rect class="cls-8" x="481.73" y="373.94" width="7.42" height="7.42" transform="translate(-124.86 453.87) rotate(-45)"/><rect class="cls-8" x="475.69" y="354.82" width="7.42" height="7.42" transform="translate(-113.11 444) rotate(-45)"/><rect class="cls-8" x="481.98" y="361.11" width="7.42" height="7.42" transform="translate(-115.71 450.29) rotate(-45)"/><rect class="cls-8" x="488.27" y="367.4" width="7.42" height="7.42" transform="translate(-118.32 456.58) rotate(-45)"/><rect class="cls-8" x="532.59" y="298.1" width="7.42" height="7.42" transform="translate(-56.33 467.62) rotate(-45)"/><rect class="cls-8" x="538.88" y="304.39" width="7.42" height="7.42" transform="translate(-58.93 473.91) rotate(-45)"/><rect class="cls-8" x="545.17" y="310.67" width="7.42" height="7.42" transform="translate(-61.54 480.2) rotate(-45)"/><rect class="cls-8" x="539.05" y="291.64" width="7.42" height="7.42" transform="translate(-49.87 470.29) rotate(-45)"/><rect class="cls-8" x="545.34" y="297.93" width="7.42" height="7.42" transform="translate(-52.48 476.58) rotate(-45)"/><rect class="cls-8" x="551.63" y="304.22" width="7.42" height="7.42" transform="translate(-55.08 482.87) rotate(-45)"/><rect class="cls-8" x="545.59" y="285.1" width="7.42" height="7.42" transform="translate(-43.33 473) rotate(-45)"/><rect class="cls-8" x="551.88" y="291.39" width="7.42" height="7.42" transform="translate(-45.94 479.29) rotate(-45)"/><rect class="cls-8" x="558.17" y="297.68" width="7.42" height="7.42" transform="translate(-48.54 485.58) rotate(-45)"/><path class="cls-3" d="M479.83,302.18a2.22,2.22,0,0,0,2.05,3.74l4.46,4.45-18,18a27.61,27.61,0,0,0,32.27-3.69l1.65,1.66-10,10L517,361l-.1.1,14.21.09,3.87-3.87Z"/></g></g></svg>