<svg xmlns="http://www.w3.org/2000/svg" xmlns:xlink="http://www.w3.org/1999/xlink" viewBox="0 0 654.82 2421.45"><defs><style>.cls-1{fill:url(#Namnlös_övertoning_154);}.cls-2,.cls-6{fill:#071c26;}.cls-2{opacity:0.5;}.cls-3{fill:#03313f;}.cls-4{fill:#faede4;}.cls-5{fill:#04151c;}.cls-10,.cls-15,.cls-7{fill:#f18889;}.cls-8{fill:#fff;opacity:0.15;}.cls-9{fill:#f09ea2;}.cls-10{font-size:3.31px;font-family:ArcaMajora3-Heavy, "Arca Majora 3";font-weight:800;}.cls-11{letter-spacing:-0.02em;}.cls-12{fill:#d7d6d5;}.cls-13{fill:#0a222b;}.cls-14{fill:#d8d7d6;}.cls-15{font-size:7.82px;font-family:RiverJade, River Jade;}</style><linearGradient id="Namnlös_övertoning_154" x1="327.95" y1="2419.85" x2="327.95" gradientUnits="userSpaceOnUse"><stop offset="0.17" stop-color="#03313f"/><stop offset="0.38" stop-color="#03313f"/><stop offset="0.4" stop-color="#03313f"/><stop offset="0.52" stop-color="#03313f"/><stop offset="0.69" stop-color="#071c26"/><stop offset="0.74" stop-color="#071c26"/><stop offset="1" stop-color="#071c26"/></linearGradient></defs><title>smoke</title><g id="Lager_2" data-name="Lager 2"><g id="Lager_1-2" data-name="Lager 1"><rect class="cls-1" x="1.48" width="652.93" height="2419.85"/><path class="cls-2" d="M654.41,2419.85h0V2419c0-.45-5.11-209.65-8-243.26-14.62-168.52-349.42-245.46-342.31-408,5.18-118.48,185.71-139,179.5-250.36-5.6-100.52-153.14-94.77-337.27-304.5,0,0-131.7-150-146.29-310.47l0-.25H0s1.82,448.9,2.61,830.18c.36,170.62.67,405.41.49,687.49H654.41Z"/><path class="cls-3" d="M470.77,2420.53h0v-.81c0-.44-3.65-209.74-5.74-243.36-10.46-168.6-250-245.57-244.88-408.2,3.71-118.53,132.85-139,128.41-250.48-4-100.56-109.55-94.8-241.28-304.63,0,0-94.22-150.07-104.66-310.61v-.25h0s1.3,449.1,1.87,830.55c.25,170.7.48,405.6.35,687.8H470.77Z"/><path class="cls-4" d="M654.41,2184.18s-23.82-2.9-31.55,22.22c0,0-15.46-10.63-22.23,6.77,0,0-17.39-45.42-57-5.8,0,0-27.06,38.65,23.19,51.21,0,0-25.12,4.83-20.29,33.82,0,0-30.92-7.73-36.72,29,0,0-33.82-36.72-59.91,0,0,0-12.42-33.82-50.18-13.53s-23.26,40.59-23.26,40.59-16.43,2.9-13.53,21.26c0,0-31.89-26.09-52.18,17.39,0,0-39.62-10.12-59.91,28.76H654.41Z"/><circle class="cls-5" cx="468.7" cy="549.22" r="4.92"/><circle class="cls-5" cx="473.62" cy="582.83" r="4.92"/><circle class="cls-5" cx="450.11" cy="606.73" r="9.84"/><circle class="cls-5" cx="184.89" cy="469.64" r="4.92"/><circle class="cls-5" cx="584.06" cy="106.96" r="4.92"/><circle class="cls-5" cx="598.06" cy="128.25" r="4.92"/><circle class="cls-5" cx="574.22" cy="152.3" r="9.84"/><circle class="cls-5" cx="85.54" cy="285.15" r="4.92"/><circle class="cls-5" cx="61.99" cy="259.79" r="4.92"/><path class="cls-6" d="M1.48,1363.16a43,43,0,0,1,5.74,1.74,43.55,43.55,0,0,1,6.86,3.34c3.11-14.09,13.05-24,24.49-25.86,4.62-.73,9.93.11,16,3.44,0,0-2.24-46.41,33.35-48.68s39.5,27.5,39.5,27.5,28.8-10.29,41.31,7-1.37,34.67-1.37,34.67,18.58-8.17,18,7.24c0,0,21.41-2.9,25,10.12,0,0,40.9-8.46,53.81-1.45s-91.41,17.1-119.24,1.22c0,0-39.74,23.09-81.25,3.2-13.17,1.92-23.83,3.07-31.5,3.77-7.23.67-11.26.89-16.43.38-5.81-.57-14.16-2.16-14.16-2.16Z"/><path class="cls-6" d="M1.48,1365.29l3.23,1.23q4.74,1.76,9.31,3.22c3.58-11.1,12.23-19.17,22.61-21.28,5-1,10.88-.47,17.68,2.73,0,0-2.53-39,33-40.67S127,1333.91,127,1333.91s28.73-8.44,41.35,6.17-1.15,29.12-1.15,29.12,18.52-6.73,18,6.21c0,0,21.4-2.28,25,8.68,0,0,40.84-6.82,53.79-.83s-91.28,13.71-119.2.18c0,0-39.58,19.12-81.21,2.1-13.2,1.81-23.85,2.59-31.46,3a156.23,156.23,0,0,1-17.2-.06c-5.37-.29-9.93-.79-13.4-1.25q.13-5.42.12-11.12C1.66,1372.38,1.59,1368.79,1.48,1365.29Z"/><path class="cls-6" d="M447.36,1202.2s-43.79,23.7-43.58-.62,33.54-9.76,33.54-9.76,5.24-19.56,40.57-3.48c0,0,11.49-38,39.74-23.54,0,0-3.64-46.14,31.87-49.48s40.3,26.18,40.3,26.18,28.48-11.11,41.51,5.72-.31,34.56-.31,34.56,18.32-8.7,18.19,6.66l5.22-.46v18.47a122.78,122.78,0,0,1-45.37-6.94,97.49,97.49,0,0,1-24.77,9.78c-15,3.73-35.3,5.14-56.35-4.14C527.92,1205.15,471.13,1218.7,447.36,1202.2Z"/><path class="cls-6" d="M447.37,1201.41s-43.76,19.81-43.58-.62,33.52-8.13,33.52-8.13,5.22-16.41,40.57-2.83c0,0,11.43-31.91,39.7-19.68,0,0-3.7-38.77,31.8-41.49s40.34,22.08,40.34,22.08,28.47-9.27,41.52,4.9-.26,29-.26,29,18.3-7.27,18.19,5.64c1.16,0,2.35-.12,3.58-.23.56,0,1.11-.1,1.65-.16,0,2.6,0,5.19,0,7.79v7.7a169.39,169.39,0,0,1-45.37-5.89,111.67,111.67,0,0,1-24.76,8.15c-15,3.1-35.29,4.24-56.35-3.6C527.93,1204.07,471.16,1215.32,447.37,1201.41Z"/><path class="cls-6" d="M376.72,2075.52a172.33,172.33,0,0,0-.07-45.17,168.85,168.85,0,0,0-10-38.91,94.22,94.22,0,0,0-52.85.49,169.4,169.4,0,0,0-9.36,37.13,174.17,174.17,0,0,0,.19,47.33,66.68,66.68,0,0,0-27.19,54.4,67.76,67.76,0,0,0,3.3,20.73A68.11,68.11,0,0,1,315,2115.2c1,2.58,2.13,5.13,3.28,7.65,1.32-.55,2.66-1.06,4-1.52l0,5.74,7.6,0A95.92,95.92,0,0,0,341,2160.35a95.66,95.66,0,0,0,11.37-33.41l7.84,0,0-6c1.18.37,2.34.77,3.49,1.21,1.17-2.63,2.28-5.31,3.32-8a68,68,0,0,1,35.69,34.85,68.45,68.45,0,0,0,2.5-18.69A66.6,66.6,0,0,0,376.72,2075.52Z"/><circle class="cls-5" cx="335.46" cy="527.99" r="122.11"/><path class="cls-5" d="M470,340.15A27.26,27.26,0,0,0,507.16,303Z"/><polygon class="cls-5" points="531.93 372.56 539.57 364.92 539.48 350.9 539.38 351 515.01 326.62 493.63 348 518.01 372.37 517.91 372.47 531.93 372.56"/><circle class="cls-5" cx="482.88" cy="315.87" r="2.19"/><rect class="cls-5" x="503.14" y="308.16" width="2.35" height="58.3" transform="translate(-90.8 455.4) rotate(-45)"/><rect class="cls-5" x="513.26" y="319.07" width="3.94" height="58.3" transform="translate(397.14 -262.33) rotate(45)"/><rect class="cls-5" x="528.29" y="301.74" width="37.7" height="29.15" transform="translate(-63.42 479.53) rotate(-45)"/><rect class="cls-5" x="464.48" y="365.55" width="37.7" height="29.15" transform="translate(-127.23 453.1) rotate(-45)"/><circle class="cls-7" cx="328" cy="506.75" r="122.11"/><circle class="cls-7" cx="447.8" cy="603.61" r="9.84"/><circle class="cls-7" cx="467.49" cy="547.45" r="4.92"/><circle class="cls-7" cx="472.41" cy="580.98" r="4.92"/><circle class="cls-7" cx="183.62" cy="468.07" r="4.92"/><circle class="cls-8" cx="306.42" cy="491.49" r="73.82"/><circle class="cls-9" cx="571.46" cy="148.69" r="9.84"/><circle class="cls-9" cx="581.3" cy="104.58" r="4.92"/><circle class="cls-9" cx="596.06" cy="126.07" r="4.92"/><circle class="cls-7" cx="84.57" cy="283.64" r="4.92"/><circle class="cls-7" cx="61.02" cy="258" r="4.92"/><path class="cls-3" d="M468.1,331.73a27.62,27.62,0,0,0,37.64-37.64Z"/><polygon class="cls-3" points="530.84 364.58 538.59 356.83 538.5 342.62 538.4 342.72 513.7 318.02 492.04 339.68 516.74 364.38 516.63 364.49 530.84 364.58"/><circle class="cls-3" cx="481.14" cy="307.13" r="2.22"/><rect class="cls-3" x="501.67" y="299.32" width="2.38" height="59.07" transform="translate(-85.25 451.9) rotate(-45)"/><rect class="cls-3" x="511.93" y="310.38" width="3.99" height="59.07" transform="translate(390.88 -263.84) rotate(45)"/><rect class="cls-3" x="527.15" y="292.82" width="38.2" height="29.54" transform="translate(-57.5 476.35) rotate(-45)"/><rect class="cls-3" x="462.5" y="357.47" width="38.2" height="29.54" transform="translate(-122.16 449.57) rotate(-45)"/><rect class="cls-4" x="462.44" y="371.23" width="7.42" height="7.42" transform="translate(-128.59 439.43) rotate(-45)"/><rect class="cls-4" x="468.73" y="377.52" width="7.42" height="7.42" transform="translate(-131.2 445.72) rotate(-45)"/><rect class="cls-4" x="475.01" y="383.81" width="7.42" height="7.42" transform="translate(-133.8 452.01) rotate(-45)"/><rect class="cls-4" x="468.89" y="364.78" width="7.42" height="7.42" transform="translate(-122.14 442.11) rotate(-45)"/><rect class="cls-4" x="475.18" y="371.07" width="7.42" height="7.42" transform="translate(-124.74 448.39) rotate(-45)"/><rect class="cls-4" x="481.47" y="377.36" width="7.42" height="7.42" transform="translate(-127.35 454.68) rotate(-45)"/><rect class="cls-4" x="475.43" y="358.24" width="7.42" height="7.42" transform="translate(-115.6 444.82) rotate(-45)"/><rect class="cls-4" x="481.72" y="364.53" width="7.42" height="7.42" transform="translate(-118.2 451.1) rotate(-45)"/><rect class="cls-4" x="488.01" y="370.81" width="7.42" height="7.42" transform="translate(-120.81 457.39) rotate(-45)"/><rect class="cls-4" x="532.34" y="301.51" width="7.42" height="7.42" transform="translate(-58.82 468.44) rotate(-45)"/><rect class="cls-4" x="538.62" y="307.8" width="7.42" height="7.42" transform="translate(-61.42 474.72) rotate(-45)"/><rect class="cls-4" x="544.91" y="314.09" width="7.42" height="7.42" transform="translate(-64.03 481.01) rotate(-45)"/><rect class="cls-4" x="538.79" y="295.05" width="7.42" height="7.42" transform="translate(-52.36 471.11) rotate(-45)"/><rect class="cls-4" x="545.08" y="301.34" width="7.42" height="7.42" transform="translate(-54.97 477.4) rotate(-45)"/><rect class="cls-4" x="551.37" y="307.63" width="7.42" height="7.42" transform="translate(-57.57 483.69) rotate(-45)"/><rect class="cls-4" x="545.33" y="288.51" width="7.42" height="7.42" transform="translate(-45.82 473.82) rotate(-45)"/><rect class="cls-4" x="551.62" y="294.8" width="7.42" height="7.42" transform="translate(-48.43 480.11) rotate(-45)"/><rect class="cls-4" x="557.91" y="301.09" width="7.42" height="7.42" transform="translate(-51.03 486.4) rotate(-45)"/><path class="cls-2" d="M479.58,305.6a2.21,2.21,0,0,0,2,3.73l4.46,4.46-18,18a27.61,27.61,0,0,0,32.27-3.69l1.65,1.65-10,10,24.7,24.7-.11.1,14.21.09,3.88-3.87Z"/><text class="cls-10" transform="translate(510.94 333.7) rotate(45)">hedylity <tspan class="cls-11" x="14.81" y="0">t</tspan><tspan x="16.1" y="0">echnology</tspan></text><path class="cls-7" d="M371.55,2001.67A133.59,133.59,0,0,1,370,2020a131.47,131.47,0,0,1-8.57,30.6q-1.33,3.23-2.83,6.35c-.93-.36-1.88-.71-2.83-1a50.1,50.1,0,0,0-5.69-1.5c0-.18,0-.36,0-.55.13-1.6.2-3.22.23-4.85a75.64,75.64,0,0,0-9.12-37.33,75.64,75.64,0,0,0-10.9,38.07c0,1.27,0,2.54,0,3.8l0,.7a50.5,50.5,0,0,0-5.64,1.4c-1.12.34-2.23.73-3.31,1.15q-1.36-3-2.56-6.16a131.82,131.82,0,0,1-7.83-31.13,133.45,133.45,0,0,1-1-18.85,135.22,135.22,0,0,1,1.63-18.91,132,132,0,0,1,30.46-65.67A132.08,132.08,0,0,1,370.66,1984,134.07,134.07,0,0,1,371.55,2001.67Z"/><path class="cls-3" d="M371.1,2021.39a135,135,0,0,0,1.6-18.79,136.69,136.69,0,0,0-.92-18.07,133.8,133.8,0,0,0-7.8-31.92,82,82,0,0,0-44.62-.48,134,134,0,0,0-8.51,30.14,136.44,136.44,0,0,0-.61,38.63,54,54,0,0,0-21.4,60.91,56.47,56.47,0,0,1,29.49-29.07q1.25,3.18,2.64,6.3c1.12-.43,2.26-.83,3.42-1.18l-.07,4.68,6.41.1a76.62,76.62,0,0,0,8.84,27.38,76.61,76.61,0,0,0,10.15-27.08l6.61.1.08-4.9c1,.32,2,.67,2.92,1,1-2.13,2-4.3,2.93-6.49a56.48,56.48,0,0,1,29.56,29,54,54,0,0,0-20.72-60.34Z"/><circle class="cls-7" cx="341.58" cy="1981.13" r="17.27"/><circle class="cls-4" cx="341.6" cy="1981.13" r="13.65"/><path class="cls-12" d="M341.81,1967.48a13.65,13.65,0,0,0-13.22,9.52,13.65,13.65,0,0,1,21.81,11.15,14,14,0,0,1-.64,3.92,13.65,13.65,0,0,0-7.95-24.59Z"/><path class="cls-12" d="M289.54,2071.94c.25-16.24,9.06-30.61,22.68-40-.63-3.24-1.15-6.53-1.56-9.85a53,53,0,0,0-22.23,42.7,54.3,54.3,0,0,0,1.44,13.34A45.2,45.2,0,0,1,289.54,2071.94Z"/><path class="cls-12" d="M390.59,2072.69c.25-16.18-8.27-30.77-21.85-40.56.75-3.21,1.39-6.46,1.9-9.75a53,53,0,0,1,19.42,56.46A46.23,46.23,0,0,0,390.59,2072.69Z"/><path class="cls-8" d="M340.94,1917.68s38.35,61.78,9.8,139.66a11.83,11.83,0,0,1,6.75,1.54S392.65,1978.59,340.94,1917.68Z"/><path class="cls-13" d="M319.35,1952.8c-.24,2-.57,4.94-.92,8.45-1.36,14.06-2.17,30.2-1.85,40.63.65,21.2,6.64,41.59,11.91,55.85a15.69,15.69,0,0,0-2.49,0,12.21,12.21,0,0,0-5,1.33,132.89,132.89,0,0,1-1.69-106.24Z"/><path class="cls-13" d="M319.36,1952.13l1.36-3.18s21.8-7.52,42.07.66l1.19,3a85,85,0,0,0-44.62-.48Z"/><path class="cls-14" d="M447.36,1187.09s-43.79,23.7-43.57-.62,33.53-9.77,33.53-9.77,5.24-19.56,40.57-3.47c0,0,11.49-38,39.74-23.55,0,0-3.64-46.14,31.87-49.47s40.31,26.18,40.31,26.18,28.48-11.12,41.5,5.71-.31,34.56-.31,34.56,18.33-8.7,18.19,6.66l5.22-.45v18.46a122,122,0,0,1-14.6-.34A124.44,124.44,0,0,1,609,1184.4a97.88,97.88,0,0,1-24.77,9.77c-15,3.73-35.3,5.14-56.35-4.14C527.92,1190,471.13,1203.58,447.36,1187.09Z"/><path class="cls-4" d="M447.37,1186.29s-43.76,19.81-43.58-.62,33.52-8.13,33.52-8.13,5.22-16.41,40.57-2.82c0,0,11.44-31.92,39.71-19.69,0,0-3.71-38.77,31.79-41.49s40.34,22.09,40.34,22.09,28.47-9.28,41.52,4.89-.26,29-.26,29,18.31-7.26,18.19,5.64c1.16,0,2.35-.12,3.58-.22l1.65-.16q0,3.89,0,7.79c0,2.56,0,5.13,0,7.69A169.52,169.52,0,0,1,609,1184.4a112.16,112.16,0,0,1-24.76,8.16c-15,3.09-35.29,4.23-56.35-3.61C527.93,1189,471.16,1200.2,447.37,1186.29Z"/><path class="cls-14" d="M1.48,1348.85a44.52,44.52,0,0,1,5.74,1.74,44.45,44.45,0,0,1,6.86,3.34c3.11-14.09,13.05-24,24.49-25.86,4.62-.73,9.93.11,16,3.44,0,0-2.24-46.41,33.35-48.68s39.5,27.5,39.5,27.5,28.8-10.29,41.31,7-1.37,34.67-1.37,34.67,18.58-8.17,18,7.24c0,0,21.41-2.9,25,10.12,0,0,40.9-8.46,53.81-1.45s-91.41,17.1-119.24,1.22c0,0-39.74,23.1-81.25,3.2-13.17,1.92-23.83,3.07-31.5,3.78-7.23.66-11.26.88-16.43.38-5.81-.57-14.16-2.17-14.16-2.17Z"/><path class="cls-4" d="M1.48,1351l3.23,1.23q4.74,1.76,9.31,3.22c3.58-11.09,12.23-19.17,22.61-21.27,5-1,10.88-.48,17.68,2.72,0,0-2.53-39,33-40.67S127,1319.6,127,1319.6s28.73-8.44,41.35,6.17-1.15,29.13-1.15,29.13,18.52-6.74,18,6.2c0,0,21.4-2.28,25,8.69,0,0,40.84-6.82,53.79-.84s-91.28,13.71-119.2.18c0,0-39.58,19.12-81.21,2.1-13.2,1.81-23.85,2.59-31.46,3a159.71,159.71,0,0,1-17.2,0c-5.37-.29-9.93-.8-13.4-1.26q.13-5.41.12-11.12C1.66,1358.08,1.59,1354.48,1.48,1351Z"/><path class="cls-8" d="M327.05,384.64a123.56,123.56,0,0,0-15.73,1,122.08,122.08,0,0,1,0,242.13,123.56,123.56,0,0,0,15.73,1,122.11,122.11,0,0,0,0-244.21Z"/><text class="cls-15" transform="translate(336.62 2007.17)">Hedy</text><path class="cls-4" d="M1.61,2189.76s23.82-2.9,31.55,22.23c0,0,15.46-10.63,22.23,6.76,0,0,17.39-45.41,57-5.79,0,0,27.06,38.65-23.19,51.21,0,0,25.12,4.83,20.29,33.82,0,0,30.92-7.73,36.72,29,0,0,33.82-36.72,59.91,0,0,0,12.42-33.82,50.18-13.53S279.57,2354,279.57,2354s16.43,2.9,13.53,21.26c0,0,31.89-26.09,52.18,17.39,0,0,39.62-10.12,59.91,28.76H1.61Z"/><path class="cls-4" d="M324.49,2063.88a253.5,253.5,0,0,1-1.25,111.29A283.81,283.81,0,0,1,310.07,2216c-3.14,8.06-11.69,28.95-22.14,46.45-2.35,3.92-39.13,64.42-86,89.83-4,2.16-12.3,6.93-13.53,13.85-.7,3.88,2.59,10.25,22.18,20.83l26.64,33.21,236.16.31c15.31-9.66,18-16.78,17.63-21.53-1-15-19.24-23.84-40.51-40.72,0,0-53.3-42.31-90-146.07-.74-2.09-4.6-14.12-5.9-19-.1-.36-.17-.64-.22-.83-.69-2.62-1.37-5.42-2-8.43-6.7-30.48-9-70.7,4.22-119.68Z"/><path class="cls-12" d="M350.82,2051.08c0,1.67-.11,3.32-.24,5,0,.19,0,.37-.05.56-.18,2.14-.46,4.25-.81,6.34A76.61,76.61,0,0,1,339.57,2090a76.62,76.62,0,0,1-8.84-27.38c-.25-2-.43-4.11-.52-6.21l0-.71c0-1.29-.05-2.59,0-3.89a76.73,76.73,0,0,1,11.24-38.94A76.84,76.84,0,0,1,350.82,2051.08Z"/><path class="cls-3" d="M341.19,2013.06a76.81,76.81,0,0,0-11,38.6c0,1.3,0,2.6,0,3.89,0,.24,0,.47,0,.71q.15,3.13.52,6.21a76.71,76.71,0,0,0,8.84,27.37l.44-.72Z"/><path class="cls-6" d="M654.82,2266.67s-18.45-1.94-24.44,14.85c0,0-12-7.11-17.21,4.51,0,0-13.48-30.34-44.17-3.87,0,0-21,25.82,18,34.22,0,0-19.46,3.22-15.72,22.59,0,0-24-5.16-28.44,19.37,0,0-26.2-24.53-46.41,0,0,0-9.62-22.6-38.87-9s-18,27.11-18,27.11-12.72,1.94-10.48,14.21c0,0-24.7-17.43-40.41,11.62,0,0-30.69-6.76-46.41,19.21H654.82Z"/><path class="cls-6" d="M1.61,2266.67s18.45-1.94,24.44,14.85c0,0,12-7.11,17.21,4.51,0,0,13.48-30.34,44.17-3.87,0,0,20.95,25.82-18,34.22,0,0,19.46,3.22,15.72,22.59,0,0,23.95-5.16,28.44,19.37,0,0,26.2-24.53,46.41,0,0,0,9.62-22.6,38.87-9s18,27.11,18,27.11,12.72,1.94,10.48,14.21c0,0,24.7-17.43,40.41,11.62,0,0,30.69-6.76,46.41,19.21H1.61Z"/></g></g></svg>